<svg width="91" height="91" viewBox="0 0 91 91" fill="none" xmlns="http://www.w3.org/2000/svg">
<circle cx="45.5" cy="45.5" r="37.5" fill="url(#paint0_linear_81_12715)"/>
<circle cx="45.5" cy="45.5" r="41.5" stroke="#A42072" stroke-opacity="0.2" stroke-width="8"/>
<g filter="url(#filter0_d_81_12715)">
<path d="M58.3556 52.3406V57.813C58.3558 58.2048 58.2073 58.5822 57.9402 58.8688C57.6731 59.1555 57.3072 59.3301 56.9164 59.3575C56.2401 59.404 55.6876 59.4287 55.2605 59.4287C41.585 59.4287 30.5 48.3431 30.5 34.6668C30.5 34.2397 30.5232 33.6872 30.5712 33.0109C30.5986 32.62 30.7733 32.2541 31.0599 31.987C31.3465 31.7199 31.7238 31.5714 32.1156 31.5716H37.5877C37.7797 31.5714 37.9648 31.6426 38.1073 31.7713C38.2497 31.9 38.3392 32.077 38.3584 32.268C38.394 32.624 38.4265 32.9072 38.4574 33.1223C38.765 35.2687 39.3952 37.3563 40.3268 39.3143C40.4739 39.6239 40.3779 39.9937 40.0993 40.1918L36.7598 42.5783C38.8017 47.3363 42.5933 51.1282 47.3511 53.1702L49.7343 49.8366C49.8317 49.7004 49.9738 49.6027 50.1359 49.5606C50.2979 49.5184 50.4696 49.5345 50.621 49.606C52.5787 50.5359 54.6656 51.1646 56.8112 51.4709C57.0263 51.5018 57.3095 51.5359 57.6623 51.5699C57.853 51.5895 58.0297 51.6791 58.1581 51.8215C58.2864 51.9639 58.3574 52.1489 58.3571 52.3406H58.3556Z" fill="url(#paint1_linear_81_12715)"/>
</g>
<defs>
<filter id="filter0_d_81_12715" x="21.5" y="23.5716" width="51.8569" height="51.8571" filterUnits="userSpaceOnUse" color-interpolation-filters="sRGB">
<feFlood flood-opacity="0" result="BackgroundImageFix"/>
<feColorMatrix in="SourceAlpha" type="matrix" values="0 0 0 0 0 0 0 0 0 0 0 0 0 0 0 0 0 0 127 0" result="hardAlpha"/>
<feOffset dx="3" dy="4"/>
<feGaussianBlur stdDeviation="6"/>
<feColorMatrix type="matrix" values="0 0 0 0 0.5 0 0 0 0 0.0916667 0 0 0 0 0.433689 0 0 0 1 0"/>
<feBlend mode="normal" in2="BackgroundImageFix" result="effect1_dropShadow_81_12715"/>
<feBlend mode="normal" in="SourceGraphic" in2="effect1_dropShadow_81_12715" result="shape"/>
</filter>
<linearGradient id="paint0_linear_81_12715" x1="28.5414" y1="-16.6019" x2="-9.69807" y2="61.8087" gradientUnits="userSpaceOnUse">
<stop stop-color="#E81B51"/>
<stop offset="1" stop-color="#7D0699"/>
</linearGradient>
<linearGradient id="paint1_linear_81_12715" x1="41.6765" y1="36.6908" x2="50.292" y2="53.0704" gradientUnits="userSpaceOnUse">
<stop stop-color="white"/>
<stop offset="1" stop-color="#FFEBED"/>
</linearGradient>
</defs>
</svg>
