<svg width="44" height="44" viewBox="0 0 44 44" fill="none" xmlns="http://www.w3.org/2000/svg">
<circle cx="22" cy="22" r="21" stroke="white" stroke-width="2"/>
<path d="M11.1431 18.3748C11.1425 17.5745 11.3018 16.7819 11.6119 16.0425C11.9219 15.3031 12.3765 14.6314 12.9498 14.0658C13.5231 13.5002 14.2037 13.0518 14.9526 12.7463C15.7016 12.4409 16.5042 12.2843 17.3145 12.2857H25.5431C28.9507 12.2857 31.7145 15.0234 31.7145 18.3748V30.5714H17.3145C13.9068 30.5714 11.1431 27.8336 11.1431 24.4822V18.3748ZM23.4859 20.4126V22.4444H25.5431V20.4126H23.4859ZM17.3145 20.4126V22.4444H19.3716V20.4126H17.3145Z" fill="url(#paint0_linear_52396_16719)"/>
<defs>
<linearGradient id="paint0_linear_52396_16719" x1="21.4288" y1="12.2856" x2="21.4288" y2="30.5714" gradientUnits="userSpaceOnUse">
<stop stop-color="#3ED9BD"/>
<stop offset="1" stop-color="#21A9D3"/>
</linearGradient>
</defs>
</svg>
