<svg width="58" height="51" viewBox="0 0 58 51" fill="none" xmlns="http://www.w3.org/2000/svg">
<g filter="url(#filter0_d_52396_16910)">
<path d="M14.78 7.5H35.2206C35.4469 7.49997 35.6699 7.55168 35.8716 7.65091C36.0732 7.75014 36.2477 7.89407 36.3807 8.07093L41.863 15.3544C41.9605 15.484 42.0085 15.6422 41.9988 15.8022C41.9891 15.9621 41.9224 16.1139 41.81 16.2316L25.5266 33.2777C25.4594 33.3478 25.378 33.4037 25.2875 33.442C25.1969 33.4803 25.0991 33.5 25.0003 33.5C24.9014 33.5 24.8037 33.4803 24.7131 33.442C24.6225 33.4037 24.5411 33.3478 24.474 33.2777L8.19063 16.233C8.07784 16.1151 8.0109 15.9631 8.00122 15.8029C7.99154 15.6427 8.03974 15.4841 8.13757 15.3544L13.6199 8.07093C13.7529 7.89407 13.9274 7.75014 14.129 7.65091C14.3306 7.55168 14.5537 7.49997 14.78 7.5Z" fill="url(#paint0_linear_52396_16910)"/>
</g>
<defs>
<filter id="filter0_d_52396_16910" x="0" y="0.5" width="58" height="50" filterUnits="userSpaceOnUse" color-interpolation-filters="sRGB">
<feFlood flood-opacity="0" result="BackgroundImageFix"/>
<feColorMatrix in="SourceAlpha" type="matrix" values="0 0 0 0 0 0 0 0 0 0 0 0 0 0 0 0 0 0 127 0" result="hardAlpha"/>
<feOffset dx="4" dy="5"/>
<feGaussianBlur stdDeviation="6"/>
<feColorMatrix type="matrix" values="0 0 0 0 0.00416667 0 0 0 0 0.00416667 0 0 0 0 0.00416667 0 0 0 0.28 0"/>
<feBlend mode="normal" in2="BackgroundImageFix" result="effect1_dropShadow_52396_16910"/>
<feBlend mode="normal" in="SourceGraphic" in2="effect1_dropShadow_52396_16910" result="shape"/>
</filter>
<linearGradient id="paint0_linear_52396_16910" x1="21.6411" y1="12.278" x2="28.3982" y2="29.0772" gradientUnits="userSpaceOnUse">
<stop stop-color="#DDCEFF"/>
<stop offset="1" stop-color="#F478F3"/>
</linearGradient>
</defs>
</svg>
