<svg width="81" height="60" viewBox="0 0 81 60" fill="none" xmlns="http://www.w3.org/2000/svg">
<g filter="url(#filter0_d_52396_16801)">
<circle cx="36.0416" cy="32.0413" r="25" transform="rotate(-4.89327 36.0416 32.0413)" fill="url(#paint0_linear_52396_16801)" fill-opacity="0.35"/>
</g>
<g filter="url(#filter1_d_52396_16801)">
<path d="M32.2432 36.9967H44.0002V39H26.0002V34.7501L35.9002 24.834L40.1422 29.0849L32.2422 36.9967H32.2432ZM37.3132 23.4187L39.4352 21.2933C39.6228 21.1055 39.8771 21 40.1422 21C40.4074 21 40.6617 21.1055 40.8492 21.2933L43.6782 24.1269C43.8657 24.3147 43.971 24.5694 43.971 24.835C43.971 25.1006 43.8657 25.3553 43.6782 25.5432L41.5562 27.6676L37.3142 23.4187H37.3132Z" fill="url(#paint1_linear_52396_16801)"/>
</g>
<defs>
<filter id="filter0_d_52396_16801" x="0.0401611" y="0.0397949" width="80.0028" height="80.0029" filterUnits="userSpaceOnUse" color-interpolation-filters="sRGB">
<feFlood flood-opacity="0" result="BackgroundImageFix"/>
<feColorMatrix in="SourceAlpha" type="matrix" values="0 0 0 0 0 0 0 0 0 0 0 0 0 0 0 0 0 0 127 0" result="hardAlpha"/>
<feOffset dx="4" dy="8"/>
<feGaussianBlur stdDeviation="7.5"/>
<feColorMatrix type="matrix" values="0 0 0 0 0.136667 0 0 0 0 0.410652 0 0 0 0 0.8 0 0 0 0.27 0"/>
<feBlend mode="normal" in2="BackgroundImageFix" result="effect1_dropShadow_52396_16801"/>
<feBlend mode="normal" in="SourceGraphic" in2="effect1_dropShadow_52396_16801" result="shape"/>
</filter>
<filter id="filter1_d_52396_16801" x="18.0002" y="14" width="42" height="42" filterUnits="userSpaceOnUse" color-interpolation-filters="sRGB">
<feFlood flood-opacity="0" result="BackgroundImageFix"/>
<feColorMatrix in="SourceAlpha" type="matrix" values="0 0 0 0 0 0 0 0 0 0 0 0 0 0 0 0 0 0 127 0" result="hardAlpha"/>
<feOffset dx="4" dy="5"/>
<feGaussianBlur stdDeviation="6"/>
<feColorMatrix type="matrix" values="0 0 0 0 0.00416667 0 0 0 0 0.00416667 0 0 0 0 0.00416667 0 0 0 0.25 0"/>
<feBlend mode="normal" in2="BackgroundImageFix" result="effect1_dropShadow_52396_16801"/>
<feBlend mode="normal" in="SourceGraphic" in2="effect1_dropShadow_52396_16801" result="shape"/>
</filter>
<linearGradient id="paint0_linear_52396_16801" x1="31.1021" y1="16.2297" x2="46.6727" y2="43.9908" gradientUnits="userSpaceOnUse">
<stop stop-color="#751616"/>
<stop offset="1" stop-color="#1B40C1"/>
</linearGradient>
<linearGradient id="paint1_linear_52396_16801" x1="33.222" y1="24.3078" x2="38.7889" y2="34.8915" gradientUnits="userSpaceOnUse">
<stop stop-color="white"/>
<stop offset="1" stop-color="#FFEBED"/>
</linearGradient>
</defs>
</svg>
