<svg width="25" height="24" viewBox="0 0 25 24" fill="none" xmlns="http://www.w3.org/2000/svg">
<path d="M11.2891 0.16394C14.2415 0.16394 16.6494 2.53053 16.6494 5.44417V11.1406H9.38947C8.86917 11.1406 8.45778 11.545 8.45778 12.0563C8.45778 12.5558 8.86917 12.9721 9.38947 12.9721H16.6494V18.6566C16.6494 21.5703 14.2415 23.9487 11.2649 23.9487H5.37232C2.40787 23.9487 0 21.5822 0 18.6685V5.45606C0 2.53053 2.41997 0.16394 5.38442 0.16394H11.2891ZM19.6703 7.9537C20.027 7.58504 20.6098 7.58504 20.9665 7.94181L24.4391 11.4025C24.6175 11.5809 24.7126 11.8068 24.7126 12.0566C24.7126 12.2944 24.6175 12.5323 24.4391 12.6988L20.9665 16.1595C20.7882 16.3378 20.5503 16.433 20.3244 16.433C20.0865 16.433 19.8487 16.3378 19.6703 16.1595C19.3135 15.8027 19.3135 15.22 19.6703 14.8632L21.5731 12.9723L16.6494 12.9721V11.1406L21.5731 11.1409L19.6703 9.24997C19.3135 8.8932 19.3135 8.31047 19.6703 7.9537Z" fill="url(#paint0_linear_52396_17092)"/>
<defs>
<linearGradient id="paint0_linear_52396_17092" x1="12.3563" y1="0.16394" x2="12.3563" y2="23.9487" gradientUnits="userSpaceOnUse">
<stop stop-color="white"/>
<stop offset="1" stop-color="#BADAFF"/>
</linearGradient>
</defs>
</svg>
