<svg width="67" height="70" viewBox="0 0 67 70" fill="none" xmlns="http://www.w3.org/2000/svg">
<g filter="url(#filter0_di_52396_16526)">
<path d="M50.9218 21.619C51.0556 25.0056 48.9474 27.3031 46.8358 27.3865C44.7242 27.4699 42.4413 25.3459 42.3075 21.9593C42.1737 18.5727 44.2819 16.2752 46.3935 16.1918C48.5051 16.1084 50.788 18.2324 50.9218 21.619Z" fill="url(#paint0_linear_52396_16526)" stroke="#FFF8F9" stroke-width="3"/>
<path d="M21.8085 25.8786C22.757 29.1324 21.2667 31.8714 19.2379 32.4628C17.2091 33.0542 14.4805 31.545 13.532 28.2912C12.5835 25.0374 14.0738 22.2984 16.1026 21.707C18.1314 21.1156 20.86 22.6248 21.8085 25.8786Z" fill="url(#paint1_linear_52396_16526)" stroke="#FFF8F9" stroke-width="3"/>
<path d="M51.2726 49.5069C42.3896 47.1588 33.2987 49.3812 26.9451 55.2563C27.9905 49.1983 31.9225 45.4693 36.5763 44.3607C41.2206 43.2543 46.8117 44.7097 51.2726 49.5069Z" fill="url(#paint2_linear_52396_16526)" stroke="#FFF8F9" stroke-width="3"/>
<path d="M11.9518 12.0003C12.9924 14.329 9.25656 18.8373 4.72786 17.7455" stroke="#FFF8F9" stroke-width="3" stroke-linecap="round"/>
<path d="M50.6273 6.50128C49.5884 9.45556 43.6377 10.5307 41.3564 5.88216" stroke="#FFF8F9" stroke-width="3" stroke-linecap="round"/>
</g>
<defs>
<filter id="filter0_di_52396_16526" x="0.227539" y="0.381836" width="66.5796" height="69.2407" filterUnits="userSpaceOnUse" color-interpolation-filters="sRGB">
<feFlood flood-opacity="0" result="BackgroundImageFix"/>
<feColorMatrix in="SourceAlpha" type="matrix" values="0 0 0 0 0 0 0 0 0 0 0 0 0 0 0 0 0 0 127 0" result="hardAlpha"/>
<feOffset dx="5" dy="4"/>
<feGaussianBlur stdDeviation="4"/>
<feColorMatrix type="matrix" values="0 0 0 0 0.641667 0 0 0 0 0.112292 0 0 0 0 0.179224 0 0 0 1 0"/>
<feBlend mode="normal" in2="BackgroundImageFix" result="effect1_dropShadow_52396_16526"/>
<feBlend mode="normal" in="SourceGraphic" in2="effect1_dropShadow_52396_16526" result="shape"/>
<feColorMatrix in="SourceAlpha" type="matrix" values="0 0 0 0 0 0 0 0 0 0 0 0 0 0 0 0 0 0 127 0" result="hardAlpha"/>
<feOffset dx="-1.32609" dy="-2.65217"/>
<feGaussianBlur stdDeviation="1.32609"/>
<feComposite in2="hardAlpha" operator="arithmetic" k2="-1" k3="1"/>
<feColorMatrix type="matrix" values="0 0 0 0 0.708333 0 0 0 0 0.0619792 0 0 0 0 0.108921 0 0 0 0.1 0"/>
<feBlend mode="normal" in2="shape" result="effect2_innerShadow_52396_16526"/>
</filter>
<linearGradient id="paint0_linear_52396_16526" x1="45.2902" y1="17.3464" x2="50.4341" y2="24.6931" gradientUnits="userSpaceOnUse">
<stop stop-color="white"/>
<stop offset="1" stop-color="#FFEBED"/>
</linearGradient>
<linearGradient id="paint1_linear_52396_16526" x1="15.3111" y1="23.0941" x2="22.0784" y2="28.9794" gradientUnits="userSpaceOnUse">
<stop stop-color="white"/>
<stop offset="1" stop-color="#FFEBED"/>
</linearGradient>
<linearGradient id="paint2_linear_52396_16526" x1="37.8488" y1="47.0094" x2="40.3714" y2="58.3294" gradientUnits="userSpaceOnUse">
<stop stop-color="white"/>
<stop offset="1" stop-color="#FFEBED"/>
</linearGradient>
</defs>
</svg>
