<svg width="90" height="83" viewBox="0 0 90 83" fill="none" xmlns="http://www.w3.org/2000/svg">
<g filter="url(#filter0_d_52396_17245)">
<path d="M72.789 17.6181L57.9277 26.5563C57.2741 26.9494 56.4296 26.7894 55.965 26.1845L41.43 7.25911C41.3683 7.17866 41.2882 7.11337 41.1961 7.06839C41.104 7.02342 41.0024 7 40.8994 7C40.7964 7 40.6949 7.02342 40.6028 7.06839C40.5107 7.11337 40.4306 7.17866 40.3688 7.25911L25.8418 26.1842C25.3774 26.7893 24.5328 26.9495 23.8791 26.5565L9.00978 17.6181C8.54088 17.337 7.93212 17.7144 8.00616 18.2524L14.2911 64.8758C14.3816 65.5102 14.941 66 15.6073 66H66.2079C66.866 66 67.4337 65.5182 67.5159 64.8758L73.8009 18.2524C73.8667 17.7144 73.2662 17.337 72.789 17.6181ZM40.9035 54.3723C35.7949 54.3723 31.6406 50.317 31.6406 45.3303C31.6406 40.3435 35.7949 36.2883 40.9035 36.2883C46.0121 36.2883 50.1664 40.3435 50.1664 45.3303C50.1664 50.317 46.0121 54.3723 40.9035 54.3723ZM40.9035 41.4517C38.7153 41.4517 36.9384 43.1862 36.9384 45.3303C36.9384 47.4663 38.7153 49.2089 40.9035 49.2089C43.0917 49.2089 44.8686 47.4743 44.8686 45.3303C44.8686 43.1942 43.0917 41.4517 40.9035 41.4517Z" fill="url(#paint0_linear_52396_17245)"/>
</g>
<defs>
<filter id="filter0_d_52396_17245" x="0" y="0" width="89.8059" height="83" filterUnits="userSpaceOnUse" color-interpolation-filters="sRGB">
<feFlood flood-opacity="0" result="BackgroundImageFix"/>
<feColorMatrix in="SourceAlpha" type="matrix" values="0 0 0 0 0 0 0 0 0 0 0 0 0 0 0 0 0 0 127 0" result="hardAlpha"/>
<feOffset dx="4" dy="5"/>
<feGaussianBlur stdDeviation="6"/>
<feColorMatrix type="matrix" values="0 0 0 0 0.00416667 0 0 0 0 0.00416667 0 0 0 0 0.00416667 0 0 0 0.28 0"/>
<feBlend mode="normal" in2="BackgroundImageFix" result="effect1_dropShadow_52396_17245"/>
<feBlend mode="normal" in="SourceGraphic" in2="effect1_dropShadow_52396_17245" result="shape"/>
</filter>
<linearGradient id="paint0_linear_52396_17245" x1="34.4019" y1="17.8423" x2="51.4882" y2="54.0734" gradientUnits="userSpaceOnUse">
<stop stop-color="#DDCEFF"/>
<stop offset="1" stop-color="#F478F3"/>
</linearGradient>
</defs>
</svg>
