<svg width="123" height="130" viewBox="0 0 123 130" fill="none" xmlns="http://www.w3.org/2000/svg">
<g filter="url(#filter0_iii_761_656)">
<mask id="mask0_761_656" style="mask-type:luminance" maskUnits="userSpaceOnUse" x="0" y="0" width="123" height="130">
<path d="M0 -1.52588e-05H122.168V129.944H0V-1.52588e-05Z" fill="white"/>
</mask>
<g mask="url(#mask0_761_656)">
<g opacity="0.800003">
<path d="M61.0841 69.2093V129.944L41.248 70.4666V50.6306L45.2948 51.2C54.0148 52.4253 61.0841 60.488 61.0841 69.2093Z" fill="url(#paint0_linear_761_656)"/>
<mask id="mask1_761_656" style="mask-type:luminance" maskUnits="userSpaceOnUse" x="41" y="66" width="21" height="20">
<path d="M41.248 66.232H61.0841V85.1293H41.248V66.232Z" fill="white"/>
</mask>
<g mask="url(#mask1_761_656)">
<g opacity="0.699997">
<path d="M41.6747 66.232C41.6747 66.232 41.5147 66.2706 41.248 66.34V70.4666L42.1747 72.4386C57.7974 74.792 60.0721 82.516 61.0841 85.1293V71.948L41.6747 66.232Z" fill="url(#paint1_linear_761_656)"/>
</g>
</g>
<path d="M45.2947 51.2L34.644 49.7026C26.228 48.52 19.4534 40.548 19.8534 32.1013C20.228 24.1893 27.0881 19.0267 35.0614 20.1467L60.5 23.5L51 6.99998L35.328 0.347992C15.9027 -2.38268 -0.365256 11.2293 0.00674452 30.7026C0.366744 49.5746 15.736 66.8813 34.644 69.5386L47.0454 71.2813C53.5414 72.1947 60.3854 78.744 61.0841 85.1293V69.2093C61.0841 60.488 54.0147 52.4253 45.2947 51.2Z" fill="url(#paint2_linear_761_656)"/>
<path d="M19.8532 32.1013C20.2278 24.1893 27.0879 19.0267 35.0612 20.1467L60.5 23.5C60.5 23.5 57 9.00002 51 5.50002C45 2.00002 35.3278 0.347996 35.3278 0.347996C20.2385 -1.77334 7.05854 5.96933 2.09854 18.6587C0.462541 37.5013 19.8438 47.6227 34.6438 49.7027C26.2278 48.52 19.4532 40.548 19.8532 32.1013Z" fill="url(#paint3_linear_761_656)"/>
<mask id="mask2_761_656" style="mask-type:luminance" maskUnits="userSpaceOnUse" x="2" y="18" width="33" height="32">
<path d="M2.00293 18.6587H34.6442V49.7027H2.00293V18.6587Z" fill="white"/>
</mask>
<g mask="url(#mask2_761_656)">
<g opacity="0.5">
<path d="M34.6443 49.7027C30.583 49.132 26.915 46.972 24.239 43.9493C2.46967 36.8586 2.09903 18.6587 2.09903 18.6587C0.463029 37.5013 19.8443 47.6227 34.6443 49.7027Z" fill="url(#paint4_linear_761_656)"/>
</g>
</g>
<path d="M2.09884 18.6587C1.83884 22.5693 2.44551 26.6906 4.21884 30.4693C5.97617 34.2546 8.83082 37.5613 12.1188 40.172C15.3948 42.8267 19.0975 44.8707 22.9122 46.4267C24.8215 47.204 26.7655 47.8573 28.7255 48.3973C30.6842 48.9533 32.6615 49.392 34.6441 49.7027C30.6788 49.208 26.6988 48.1866 22.8495 46.6533C19.0055 45.1253 15.2575 43.108 11.9175 40.448C8.60949 37.772 5.74414 34.392 4.00147 30.5467C3.12681 28.632 2.53083 26.6253 2.22283 24.6173C1.92816 22.6067 1.91351 20.6053 2.09884 18.6587Z" fill="url(#paint5_linear_761_656)"/>
<path d="M34.644 69.5386C37.3347 69.8506 40.0267 70.18 42.7174 70.5333L46.7547 71.0747C48.1107 71.264 49.4801 71.6346 50.7881 72.2053C53.3801 73.4026 55.7654 75.2107 57.6187 77.46C59.4987 79.6733 60.8094 82.404 61.0841 85.1293C60.8921 83.7667 60.4321 82.424 59.7948 81.1626C59.1734 79.892 58.3574 78.7013 57.4147 77.6267C55.556 75.4533 53.2201 73.684 50.6814 72.5386C48.1374 71.3493 45.4027 71.2853 42.7174 70.8133C40.0267 70.4107 37.3347 69.984 34.644 69.5386Z" fill="url(#paint6_linear_761_656)"/>
<path d="M61.084 69.2093V129.944L80.92 76.0426V56.2066L76.8747 55.6373C68.1533 54.412 61.084 60.488 61.084 69.2093Z" fill="url(#paint7_linear_761_656)"/>
<mask id="mask3_761_656" style="mask-type:luminance" maskUnits="userSpaceOnUse" x="61" y="71" width="20" height="15">
<path d="M61.084 71.6867H80.92V85.1293H61.084V71.6867Z" fill="white"/>
</mask>
<g mask="url(#mask3_761_656)">
<g opacity="0.699997">
<path d="M80.4933 71.6867C80.4933 71.6867 80.6547 71.7706 80.92 71.916V76.0426L79.9933 77.7533C64.372 75.716 62.096 82.8 61.084 85.1293V71.948L80.4933 71.6867Z" fill="url(#paint8_linear_761_656)"/>
</g>
</g>
<path d="M76.8747 55.6373L87.5253 57.1347C95.94 58.3173 102.716 52.2493 102.316 43.6906C101.94 35.6733 95.08 28.5813 87.1067 27.4613L61 23.5L73 8.49998L86.8413 7.58798C106.267 10.3173 122.533 28.5013 122.163 47.8707C121.803 66.6413 106.432 79.628 87.5253 76.9706L75.1226 75.228C68.628 74.3146 61.7827 78.9413 61.084 85.1293V69.2093C61.084 60.488 68.1533 54.412 76.8747 55.6373Z" fill="url(#paint9_linear_761_656)"/>
<path d="M102.291 43.5999C101.914 35.5302 95.0444 28.3918 87.0597 27.2645L61 23.5833C61 23.5833 67.5 12 72 9.00002C76.5 6.00002 86.7939 7.26136 86.7939 7.26136C101.905 9.39521 115.102 20.918 120.069 35.0927C121.709 54.5214 102.3 59.2253 87.4789 57.1317C95.9055 58.3221 102.691 52.2144 102.291 43.5999Z" fill="url(#paint10_linear_761_656)"/>
<mask id="mask4_761_656" style="mask-type:luminance" maskUnits="userSpaceOnUse" x="87" y="35" width="34" height="23">
<path d="M87.5254 35.2386H120.167V57.5893H87.5254V35.2386Z" fill="white"/>
</mask>
<g mask="url(#mask4_761_656)">
<g opacity="0.5">
<path d="M87.5254 57.1347C91.5854 57.7053 95.2548 56.576 97.9294 54.3053C119.699 53.3333 120.069 35.2387 120.069 35.2387C121.707 54.5413 102.325 59.2147 87.5254 57.1347Z" fill="url(#paint11_linear_761_656)"/>
</g>
</g>
<path d="M120.069 35.2386C120.256 37.2373 120.24 39.2346 119.945 41.1613C119.639 43.084 119.043 44.9226 118.168 46.592C116.424 49.948 113.56 52.5227 110.251 54.268C106.912 55.9893 103.164 56.9533 99.3188 57.4C95.4694 57.852 91.4894 57.7546 87.5254 57.1346C89.5067 57.3813 91.484 57.4986 93.4427 57.4933C95.4027 57.504 97.3481 57.3973 99.2574 57.156C103.071 56.672 106.773 55.6693 110.049 53.9347C113.339 52.248 116.192 49.7453 117.951 46.4533C119.724 43.1733 120.329 39.2213 120.069 35.2386Z" fill="url(#paint12_linear_761_656)"/>
<path d="M87.5253 76.9706C84.8333 76.66 82.1427 76.3306 79.452 75.976C76.7653 75.6933 74.032 74.988 71.4867 75.4627C68.9493 75.8947 66.612 77.0066 64.7533 78.6573C63.8107 79.4666 62.9947 80.4293 62.3747 81.524C61.736 82.6066 61.2773 83.8213 61.084 85.1293C61.3587 82.48 62.6693 80.12 64.5506 78.4347C66.4026 76.7067 68.7893 75.568 71.3813 75.0986C72.688 74.8973 74.0573 74.9106 75.4146 75.1026L79.452 75.696C82.1427 76.0987 84.8333 76.5253 87.5253 76.9706Z" fill="url(#paint13_linear_761_656)"/>
<path d="M61.0841 84.8227C61.1547 88.5933 61.1987 92.36 61.2054 96.12L61.2668 107.409L61.2054 118.681C61.1987 122.44 61.1561 126.193 61.0841 129.944C61.0134 126.173 60.9694 122.408 60.9627 118.647L60.9014 107.357L60.9627 96.0867C60.9707 92.3267 61.0134 88.5733 61.0841 84.8227Z" fill="url(#paint14_linear_761_656)"/>
</g>
</g>
</g>
<defs>
<filter id="filter0_iii_761_656" x="0.000488281" y="0" width="122.167" height="133.944" filterUnits="userSpaceOnUse" color-interpolation-filters="sRGB">
<feFlood flood-opacity="0" result="BackgroundImageFix"/>
<feBlend mode="normal" in="SourceGraphic" in2="BackgroundImageFix" result="shape"/>
<feColorMatrix in="SourceAlpha" type="matrix" values="0 0 0 0 0 0 0 0 0 0 0 0 0 0 0 0 0 0 127 0" result="hardAlpha"/>
<feOffset dy="4"/>
<feGaussianBlur stdDeviation="2"/>
<feComposite in2="hardAlpha" operator="arithmetic" k2="-1" k3="1"/>
<feColorMatrix type="matrix" values="0 0 0 0 0 0 0 0 0 0 0 0 0 0 0 0 0 0 0.25 0"/>
<feBlend mode="normal" in2="shape" result="effect1_innerShadow_761_656"/>
<feColorMatrix in="SourceAlpha" type="matrix" values="0 0 0 0 0 0 0 0 0 0 0 0 0 0 0 0 0 0 127 0" result="hardAlpha"/>
<feOffset dy="4"/>
<feGaussianBlur stdDeviation="2"/>
<feComposite in2="hardAlpha" operator="arithmetic" k2="-1" k3="1"/>
<feColorMatrix type="matrix" values="0 0 0 0 0 0 0 0 0 0 0 0 0 0 0 0 0 0 0.25 0"/>
<feBlend mode="normal" in2="effect1_innerShadow_761_656" result="effect2_innerShadow_761_656"/>
<feColorMatrix in="SourceAlpha" type="matrix" values="0 0 0 0 0 0 0 0 0 0 0 0 0 0 0 0 0 0 127 0" result="hardAlpha"/>
<feOffset dy="4"/>
<feGaussianBlur stdDeviation="2"/>
<feComposite in2="hardAlpha" operator="arithmetic" k2="-1" k3="1"/>
<feColorMatrix type="matrix" values="0 0 0 0 0 0 0 0 0 0 0 0 0 0 0 0 0 0 0.25 0"/>
<feBlend mode="normal" in2="effect2_innerShadow_761_656" result="effect3_innerShadow_761_656"/>
</filter>
<linearGradient id="paint0_linear_761_656" x1="51.1662" y1="126.384" x2="57.1861" y2="83.5507" gradientUnits="userSpaceOnUse">
<stop stop-color="#D941AD"/>
<stop offset="1" stop-color="#8853EE"/>
</linearGradient>
<linearGradient id="paint1_linear_761_656" x1="51.1662" y1="69.3564" x2="48.6115" y2="87.5341" gradientUnits="userSpaceOnUse">
<stop stop-color="#D941AD"/>
<stop offset="1" stop-color="#8853EE"/>
</linearGradient>
<linearGradient id="paint2_linear_761_656" x1="33.1583" y1="31.8525" x2="57.34" y2="57.0895" gradientUnits="userSpaceOnUse">
<stop stop-color="#D941AD"/>
<stop offset="1" stop-color="#E765D4"/>
</linearGradient>
<linearGradient id="paint3_linear_761_656" x1="41.5362" y1="9.62467" x2="11.1393" y2="39.3099" gradientUnits="userSpaceOnUse">
<stop stop-color="#D941AD"/>
<stop offset="1" stop-color="#8853EE"/>
</linearGradient>
<linearGradient id="paint4_linear_761_656" x1="18.3231" y1="23.8709" x2="14.141" y2="53.6285" gradientUnits="userSpaceOnUse">
<stop stop-color="#D941AD"/>
<stop offset="1" stop-color="#8853EE"/>
</linearGradient>
<linearGradient id="paint5_linear_761_656" x1="1.81944" y1="31.8574" x2="34.6437" y2="31.8574" gradientUnits="userSpaceOnUse">
<stop stop-color="#8853EE"/>
<stop offset="0.490955" stop-color="white"/>
<stop offset="1" stop-color="#8853EE"/>
</linearGradient>
<linearGradient id="paint6_linear_761_656" x1="34.6436" y1="75.3929" x2="61.266" y2="75.3929" gradientUnits="userSpaceOnUse">
<stop stop-color="#8853EE"/>
<stop offset="0.490955" stop-color="white"/>
<stop offset="1" stop-color="#8853EE"/>
</linearGradient>
<linearGradient id="paint7_linear_761_656" x1="71.0024" y1="129.172" x2="77.0223" y2="86.3385" gradientUnits="userSpaceOnUse">
<stop stop-color="#FD9800"/>
<stop offset="1" stop-color="#FF4868"/>
</linearGradient>
<linearGradient id="paint8_linear_761_656" x1="71.0024" y1="72.1443" x2="68.4477" y2="90.3219" gradientUnits="userSpaceOnUse">
<stop stop-color="#D941AD"/>
<stop offset="1" stop-color="#8853EE"/>
</linearGradient>
<linearGradient id="paint9_linear_761_656" x1="93.816" y1="62.5835" x2="129.365" y2="110.658" gradientUnits="userSpaceOnUse">
<stop stop-color="#FD9800"/>
<stop offset="1" stop-color="#FF4868"/>
</linearGradient>
<linearGradient id="paint10_linear_761_656" x1="80.576" y1="14.8418" x2="109.919" y2="54.1398" gradientUnits="userSpaceOnUse">
<stop stop-color="#FD9800"/>
<stop offset="1" stop-color="#FF4868"/>
</linearGradient>
<linearGradient id="paint11_linear_761_656" x1="103.846" y1="35.8904" x2="99.6637" y2="65.648" gradientUnits="userSpaceOnUse">
<stop stop-color="#D941AD"/>
<stop offset="1" stop-color="#8853EE"/>
</linearGradient>
<linearGradient id="paint12_linear_761_656" x1="120.349" y1="48.5157" x2="87.5251" y2="48.5157" gradientUnits="userSpaceOnUse">
<stop stop-color="#FD9800"/>
<stop offset="0.490955" stop-color="white"/>
<stop offset="1" stop-color="#FD9800"/>
</linearGradient>
<linearGradient id="paint13_linear_761_656" x1="87.5251" y1="82.8249" x2="60.9027" y2="82.8249" gradientUnits="userSpaceOnUse">
<stop stop-color="#FD9800"/>
<stop offset="0.490955" stop-color="white"/>
<stop offset="1" stop-color="#FD9800"/>
</linearGradient>
<linearGradient id="paint14_linear_761_656" x1="61.0844" y1="129.944" x2="67.3018" y2="85.6969" gradientUnits="userSpaceOnUse">
<stop stop-color="#FD9800"/>
<stop offset="0.5" stop-color="#FFD79D"/>
<stop offset="1" stop-color="#FD9800"/>
</linearGradient>
</defs>
</svg>
