<?xml version="1.0" encoding="UTF-8" standalone="no"?>
<!-- Created with Inkscape (http://www.inkscape.org/) -->

<svg
   version="1.1"
   id="svg2"
   width="906.66669"
   height="373.33334"
   viewBox="0 0 906.66669 373.33334"
   sodipodi:docname="Psync3.ai"
   xmlns:inkscape="http://www.inkscape.org/namespaces/inkscape"
   xmlns:sodipodi="http://sodipodi.sourceforge.net/DTD/sodipodi-0.dtd"
   xmlns="http://www.w3.org/2000/svg"
   xmlns:svg="http://www.w3.org/2000/svg">
  <defs
     id="defs6">
    <linearGradient
       x1="0"
       y1="0"
       x2="1"
       y2="0"
       gradientUnits="userSpaceOnUse"
       gradientTransform="matrix(0,235.22466,235.22466,0,340,35.512737)"
       spreadMethod="pad"
       id="linearGradient26">
      <stop
         style="stop-opacity:1;stop-color:#140034"
         offset="0"
         id="stop22" />
      <stop
         style="stop-opacity:1;stop-color:#01010d"
         offset="1"
         id="stop24" />
    </linearGradient>
    <linearGradient
       x1="0"
       y1="0"
       x2="1"
       y2="0"
       gradientUnits="userSpaceOnUse"
       gradientTransform="matrix(0,88.675026,88.675026,0,116.09724,16.522726)"
       spreadMethod="pad"
       id="linearGradient48">
      <stop
         style="stop-opacity:1;stop-color:#d841ac"
         offset="0"
         id="stop42" />
      <stop
         style="stop-opacity:1;stop-color:#8753ed"
         offset="1"
         id="stop44" />
      <stop
         style="stop-opacity:1;stop-color:#8753ed"
         offset="1"
         id="stop46" />
    </linearGradient>
    <clipPath
       clipPathUnits="userSpaceOnUse"
       id="clipPath58">
      <path
         d="M 0,280 H 680 V 0 H 0 Z"
         id="path56" />
    </clipPath>
    <clipPath
       clipPathUnits="userSpaceOnUse"
       id="clipPath66">
      <path
         d="M 95.9622,135.932 H 136.232 V 103.106 H 95.9622 Z"
         id="path64" />
    </clipPath>
    <linearGradient
       x1="0"
       y1="0"
       x2="1"
       y2="0"
       gradientUnits="userSpaceOnUse"
       gradientTransform="matrix(0,-37.632,-37.632,0,116.09726,132.29643)"
       spreadMethod="pad"
       id="linearGradient78">
      <stop
         style="stop-opacity:1;stop-color:#d841ac"
         offset="0"
         id="stop72" />
      <stop
         style="stop-opacity:1;stop-color:#8753ed"
         offset="1"
         id="stop74" />
      <stop
         style="stop-opacity:1;stop-color:#8753ed"
         offset="1"
         id="stop76" />
    </linearGradient>
    <linearGradient
       x1="0"
       y1="0"
       x2="1"
       y2="0"
       gradientUnits="userSpaceOnUse"
       gradientTransform="matrix(48.940563,-44.543007,-44.543007,-48.940563,77.939201,201.60773)"
       spreadMethod="pad"
       id="linearGradient112">
      <stop
         style="stop-opacity:1;stop-color:#d841ac"
         offset="0"
         id="stop106" />
      <stop
         style="stop-opacity:1;stop-color:#e665d3"
         offset="1"
         id="stop108" />
      <stop
         style="stop-opacity:1;stop-color:#e665d3"
         offset="1"
         id="stop110" />
    </linearGradient>
    <linearGradient
       x1="0"
       y1="0"
       x2="1"
       y2="0"
       gradientUnits="userSpaceOnUse"
       gradientTransform="matrix(-58.818619,-66.579407,-66.579407,58.818619,94.091957,248.03293)"
       spreadMethod="pad"
       id="linearGradient134">
      <stop
         style="stop-opacity:1;stop-color:#d841ac"
         offset="0"
         id="stop128" />
      <stop
         style="stop-opacity:1;stop-color:#8753ed"
         offset="1"
         id="stop130" />
      <stop
         style="stop-opacity:1;stop-color:#8753ed"
         offset="1"
         id="stop132" />
    </linearGradient>
    <clipPath
       clipPathUnits="userSpaceOnUse"
       id="clipPath144">
      <path
         d="M 0,280 H 680 V 0 H 0 Z"
         id="path142" />
    </clipPath>
    <clipPath
       clipPathUnits="userSpaceOnUse"
       id="clipPath152">
      <path
         d="M 16.2875,221.219 H 82.5541 V 167.482 H 16.2875 Z"
         id="path150" />
    </clipPath>
    <linearGradient
       x1="0"
       y1="0"
       x2="1"
       y2="0"
       gradientUnits="userSpaceOnUse"
       gradientTransform="matrix(0,-61.605114,-61.605114,0,49.420826,215.2675)"
       spreadMethod="pad"
       id="linearGradient164">
      <stop
         style="stop-opacity:1;stop-color:#d841ac"
         offset="0"
         id="stop158" />
      <stop
         style="stop-opacity:1;stop-color:#8753ed"
         offset="1"
         id="stop160" />
      <stop
         style="stop-opacity:1;stop-color:#8753ed"
         offset="1"
         id="stop162" />
    </linearGradient>
    <linearGradient
       x1="0"
       y1="0"
       x2="1"
       y2="0"
       gradientUnits="userSpaceOnUse"
       gradientTransform="matrix(66.637665,0,0,-66.637665,15.916478,194.34497)"
       spreadMethod="pad"
       id="linearGradient200">
      <stop
         style="stop-opacity:1;stop-color:#8753ed"
         offset="0"
         id="stop192" />
      <stop
         style="stop-opacity:1;stop-color:#ffffff"
         offset="0.490955"
         id="stop194" />
      <stop
         style="stop-opacity:1;stop-color:#8753ed"
         offset="1"
         id="stop196" />
      <stop
         style="stop-opacity:1;stop-color:#8753ed"
         offset="1"
         id="stop198" />
    </linearGradient>
    <linearGradient
       x1="0"
       y1="0"
       x2="1"
       y2="0"
       gradientUnits="userSpaceOnUse"
       gradientTransform="matrix(54.046993,0,0,-54.046993,82.554138,115.32751)"
       spreadMethod="pad"
       id="linearGradient224">
      <stop
         style="stop-opacity:1;stop-color:#8753ed"
         offset="0"
         id="stop216" />
      <stop
         style="stop-opacity:1;stop-color:#ffffff"
         offset="0.490955"
         id="stop218" />
      <stop
         style="stop-opacity:1;stop-color:#8753ed"
         offset="1"
         id="stop220" />
      <stop
         style="stop-opacity:1;stop-color:#8753ed"
         offset="1"
         id="stop222" />
    </linearGradient>
    <linearGradient
       x1="0"
       y1="0"
       x2="1"
       y2="0"
       gradientUnits="userSpaceOnUse"
       gradientTransform="matrix(0,88.675026,-88.675026,0,156.36749,16.522726)"
       spreadMethod="pad"
       id="linearGradient246">
      <stop
         style="stop-opacity:1;stop-color:#fc9700"
         offset="0"
         id="stop240" />
      <stop
         style="stop-opacity:1;stop-color:#ff4868"
         offset="1"
         id="stop242" />
      <stop
         style="stop-opacity:1;stop-color:#ff4868"
         offset="1"
         id="stop244" />
    </linearGradient>
    <clipPath
       clipPathUnits="userSpaceOnUse"
       id="clipPath256">
      <path
         d="M 0,280 H 680 V 0 H 0 Z"
         id="path254" />
    </clipPath>
    <clipPath
       clipPathUnits="userSpaceOnUse"
       id="clipPath264">
      <path
         d="m 136.232,135.932 h 40.271 v -32.826 h -40.271 z"
         id="path262" />
    </clipPath>
    <linearGradient
       x1="0"
       y1="0"
       x2="1"
       y2="0"
       gradientUnits="userSpaceOnUse"
       gradientTransform="matrix(0,-37.632,37.632,0,156.36748,132.29643)"
       spreadMethod="pad"
       id="linearGradient276">
      <stop
         style="stop-opacity:1;stop-color:#d841ac"
         offset="0"
         id="stop270" />
      <stop
         style="stop-opacity:1;stop-color:#8753ed"
         offset="1"
         id="stop272" />
      <stop
         style="stop-opacity:1;stop-color:#8753ed"
         offset="1"
         id="stop274" />
    </linearGradient>
    <linearGradient
       x1="0"
       y1="0"
       x2="1"
       y2="0"
       gradientUnits="userSpaceOnUse"
       gradientTransform="matrix(72.423477,-82.299408,-82.299408,-72.423477,203.40895,157.44643)"
       spreadMethod="pad"
       id="linearGradient310">
      <stop
         style="stop-opacity:1;stop-color:#fc9700"
         offset="0"
         id="stop304" />
      <stop
         style="stop-opacity:1;stop-color:#ff4868"
         offset="1"
         id="stop306" />
      <stop
         style="stop-opacity:1;stop-color:#ff4868"
         offset="1"
         id="stop308" />
    </linearGradient>
    <linearGradient
       x1="0"
       y1="0"
       x2="1"
       y2="0"
       gradientUnits="userSpaceOnUse"
       gradientTransform="matrix(49.396709,-57.895069,-57.895069,-49.396709,181.29048,245.06589)"
       spreadMethod="pad"
       id="linearGradient332">
      <stop
         style="stop-opacity:1;stop-color:#fc9700"
         offset="0"
         id="stop326" />
      <stop
         style="stop-opacity:1;stop-color:#ff4868"
         offset="1"
         id="stop328" />
      <stop
         style="stop-opacity:1;stop-color:#ff4868"
         offset="1"
         id="stop330" />
    </linearGradient>
    <clipPath
       clipPathUnits="userSpaceOnUse"
       id="clipPath342">
      <path
         d="M 0,280 H 680 V 0 H 0 Z"
         id="path340" />
    </clipPath>
    <clipPath
       clipPathUnits="userSpaceOnUse"
       id="clipPath350">
      <path
         d="m 189.911,221.219 h 66.266 v -53.737 h -66.266 z"
         id="path348" />
    </clipPath>
    <linearGradient
       x1="0"
       y1="0"
       x2="1"
       y2="0"
       gradientUnits="userSpaceOnUse"
       gradientTransform="matrix(0,-61.605114,61.605114,0,223.04391,215.2675)"
       spreadMethod="pad"
       id="linearGradient362">
      <stop
         style="stop-opacity:1;stop-color:#d841ac"
         offset="0"
         id="stop356" />
      <stop
         style="stop-opacity:1;stop-color:#8753ed"
         offset="1"
         id="stop358" />
      <stop
         style="stop-opacity:1;stop-color:#8753ed"
         offset="1"
         id="stop360" />
    </linearGradient>
    <linearGradient
       x1="0"
       y1="0"
       x2="1"
       y2="0"
       gradientUnits="userSpaceOnUse"
       gradientTransform="matrix(-66.637665,0,0,66.637665,256.54825,194.34497)"
       spreadMethod="pad"
       id="linearGradient398">
      <stop
         style="stop-opacity:1;stop-color:#fc9700"
         offset="0"
         id="stop390" />
      <stop
         style="stop-opacity:1;stop-color:#ffffff"
         offset="0.490955"
         id="stop392" />
      <stop
         style="stop-opacity:1;stop-color:#fc9700"
         offset="1"
         id="stop394" />
      <stop
         style="stop-opacity:1;stop-color:#fc9700"
         offset="1"
         id="stop396" />
    </linearGradient>
    <linearGradient
       x1="0"
       y1="0"
       x2="1"
       y2="0"
       gradientUnits="userSpaceOnUse"
       gradientTransform="matrix(-54.046993,0,0,54.046993,189.9106,115.32752)"
       spreadMethod="pad"
       id="linearGradient422">
      <stop
         style="stop-opacity:1;stop-color:#fc9700"
         offset="0"
         id="stop414" />
      <stop
         style="stop-opacity:1;stop-color:#ffffff"
         offset="0.490955"
         id="stop416" />
      <stop
         style="stop-opacity:1;stop-color:#fc9700"
         offset="1"
         id="stop418" />
      <stop
         style="stop-opacity:1;stop-color:#fc9700"
         offset="1"
         id="stop420" />
    </linearGradient>
    <linearGradient
       x1="0"
       y1="0"
       x2="1"
       y2="0"
       gradientUnits="userSpaceOnUse"
       gradientTransform="matrix(0,91.600723,91.600723,0,136.23239,12.125905)"
       spreadMethod="pad"
       id="linearGradient446">
      <stop
         style="stop-opacity:1;stop-color:#fc9700"
         offset="0"
         id="stop438" />
      <stop
         style="stop-opacity:1;stop-color:#ffd69c"
         offset="0.5"
         id="stop440" />
      <stop
         style="stop-opacity:1;stop-color:#fc9700"
         offset="1"
         id="stop442" />
      <stop
         style="stop-opacity:1;stop-color:#fc9700"
         offset="1"
         id="stop444" />
    </linearGradient>
    <linearGradient
       x1="0"
       y1="0"
       x2="1"
       y2="0"
       gradientUnits="userSpaceOnUse"
       gradientTransform="matrix(0,-362.78467,-362.78467,0,512.71564,200.57294)"
       spreadMethod="pad"
       id="linearGradient466">
      <stop
         style="stop-opacity:1;stop-color:#ffffff"
         offset="0"
         id="stop462" />
      <stop
         style="stop-opacity:1;stop-color:#2f1755"
         offset="1"
         id="stop464" />
    </linearGradient>
    <linearGradient
       x1="0"
       y1="0"
       x2="1"
       y2="0"
       gradientUnits="userSpaceOnUse"
       gradientTransform="matrix(0,-362.78467,-362.78467,0,610.43744,200.57294)"
       spreadMethod="pad"
       id="linearGradient486">
      <stop
         style="stop-opacity:1;stop-color:#ffffff"
         offset="0"
         id="stop482" />
      <stop
         style="stop-opacity:1;stop-color:#2f1755"
         offset="1"
         id="stop484" />
    </linearGradient>
    <linearGradient
       x1="0"
       y1="0"
       x2="1"
       y2="0"
       gradientUnits="userSpaceOnUse"
       gradientTransform="matrix(0,-83.759987,-83.759987,0,460.67395,200.17458)"
       spreadMethod="pad"
       id="linearGradient506">
      <stop
         style="stop-opacity:1;stop-color:#ffffff"
         offset="0"
         id="stop502" />
      <stop
         style="stop-opacity:1;stop-color:#47326a"
         offset="1"
         id="stop504" />
    </linearGradient>
    <linearGradient
       x1="0"
       y1="0"
       x2="1"
       y2="0"
       gradientUnits="userSpaceOnUse"
       gradientTransform="matrix(0,-362.78467,-362.78467,0,412.76624,200.57294)"
       spreadMethod="pad"
       id="linearGradient526">
      <stop
         style="stop-opacity:1;stop-color:#ffffff"
         offset="0"
         id="stop522" />
      <stop
         style="stop-opacity:1;stop-color:#2f1755"
         offset="1"
         id="stop524" />
    </linearGradient>
    <linearGradient
       x1="0"
       y1="0"
       x2="1"
       y2="0"
       gradientUnits="userSpaceOnUse"
       gradientTransform="matrix(0,-362.78467,-362.78467,0,318.96268,200.57294)"
       spreadMethod="pad"
       id="linearGradient546">
      <stop
         style="stop-opacity:1;stop-color:#ffffff"
         offset="0"
         id="stop542" />
      <stop
         style="stop-opacity:1;stop-color:#2f1755"
         offset="1"
         id="stop544" />
    </linearGradient>
    <clipPath
       clipPathUnits="userSpaceOnUse"
       id="clipPath556">
      <path
         d="M 0,280 H 680 V 0 H 0 Z"
         id="path554" />
    </clipPath>
    <clipPath
       clipPathUnits="userSpaceOnUse"
       id="clipPath572">
      <path
         d="m 384.456,182.333 c -2.321,-2.113 -3.051,-5.464 -1.75,-8.32 v 0 L 405.517,123.971 389.659,20.793 c -0.391,-2.548 1.58,-4.845 4.158,-4.845 v 0 h 32.171 c 2.578,0 4.549,2.297 4.157,4.845 v 0 l -15.858,103.168 15.677,35.477 c 1.256,2.841 0.254,6.168 -2.364,7.839 v 0 c -10.733,6.848 -16.204,21.104 -27.11,21.943 v 0 c -0.382,0.029 -0.762,0.043 -1.14,0.043 v 0 c -5.53,0 -10.642,-3.063 -14.894,-6.93"
         id="path570" />
    </clipPath>
    <linearGradient
       x1="0"
       y1="0"
       x2="1"
       y2="0"
       gradientUnits="userSpaceOnUse"
       gradientTransform="matrix(0,140.51886,140.51886,0,406.284,46.805756)"
       spreadMethod="pad"
       id="linearGradient586">
      <stop
         style="stop-opacity:0;stop-color:#ffffff"
         offset="0"
         id="stop582" />
      <stop
         style="stop-opacity:1;stop-color:#ffffff"
         offset="1"
         id="stop584" />
    </linearGradient>
    <mask
       maskUnits="userSpaceOnUse"
       x="0"
       y="0"
       width="1"
       height="1"
       id="mask588">
      <g
         id="g598">
        <g
           id="g596">
          <g
             id="g594">
            <g
               id="g592">
              <path
                 d="M -32768,32767 H 32767 V -32768 H -32768 Z"
                 style="fill:url(#linearGradient586);stroke:none"
                 id="path590" />
            </g>
          </g>
        </g>
      </g>
    </mask>
    <linearGradient
       x1="0"
       y1="0"
       x2="1"
       y2="0"
       gradientUnits="userSpaceOnUse"
       gradientTransform="matrix(0,140.51886,140.51886,0,406.284,46.805756)"
       spreadMethod="pad"
       id="linearGradient608">
      <stop
         style="stop-opacity:1;stop-color:#ffffff"
         offset="0"
         id="stop604" />
      <stop
         style="stop-opacity:1;stop-color:#2f1755"
         offset="1"
         id="stop606" />
    </linearGradient>
    <clipPath
       clipPathUnits="userSpaceOnUse"
       id="clipPath618">
      <path
         d="m 317.131,174.386 c -0.777,-0.741 -1.497,-1.5 -2.16,-2.26 v 0 c -1.493,-1.715 -0.661,-4.398 1.539,-4.969 v 0 c 3.628,-0.941 8.412,-2.21 10.192,-2.791 v 0 c 3.372,-1.101 6.253,-2.726 8.562,-4.83 v 0 c 2.706,-2.467 4.137,-5.804 4.137,-9.648 v 0 c 0,-4.355 -1.533,-7.978 -4.558,-10.769 v 0 c -4.372,-4.022 -15.735,-4.07 -15.849,-4.07 v 0 c -11.26,0 -21.102,3.077 -27.435,5.691 v 0 c -1.845,0.763 -3.953,-0.128 -4.642,-2.002 v 0 l -1.293,-3.524 c -0.697,-1.898 0.338,-3.98 2.272,-4.571 v 0 c 7.336,-2.243 19.287,-5.26 30.492,-5.26 v 0 c 11.398,0 22.917,2.822 28.014,6.864 v 0 c 5.556,4.407 8.257,10.008 8.257,17.121 v 0 c 0,5.684 -1.369,10.175 -4.067,13.346 v 0 c -2.899,3.403 -6.392,5.923 -10.384,7.489 v 0 c -3.494,1.371 -14.115,4.136 -18.845,5.346 v 0 c -0.356,0.092 -0.715,0.135 -1.07,0.135 v 0 c -1.164,0 -2.292,-0.47 -3.162,-1.298"
         id="path616" />
    </clipPath>
    <linearGradient
       x1="0"
       y1="0"
       x2="1"
       y2="0"
       gradientUnits="userSpaceOnUse"
       gradientTransform="matrix(0,48.732052,48.732052,0,320.03302,124.68525)"
       spreadMethod="pad"
       id="linearGradient632">
      <stop
         style="stop-opacity:0;stop-color:#ffffff"
         offset="0"
         id="stop628" />
      <stop
         style="stop-opacity:1;stop-color:#ffffff"
         offset="1"
         id="stop630" />
    </linearGradient>
    <mask
       maskUnits="userSpaceOnUse"
       x="0"
       y="0"
       width="1"
       height="1"
       id="mask634">
      <g
         id="g644">
        <g
           id="g642">
          <g
             id="g640">
            <g
               id="g638">
              <path
                 d="M -32768,32767 H 32767 V -32768 H -32768 Z"
                 style="fill:url(#linearGradient632);stroke:none"
                 id="path636" />
            </g>
          </g>
        </g>
      </g>
    </mask>
    <linearGradient
       x1="0"
       y1="0"
       x2="1"
       y2="0"
       gradientUnits="userSpaceOnUse"
       gradientTransform="matrix(0,48.732052,48.732052,0,320.03302,124.68525)"
       spreadMethod="pad"
       id="linearGradient654">
      <stop
         style="stop-opacity:1;stop-color:#ffffff"
         offset="0"
         id="stop650" />
      <stop
         style="stop-opacity:1;stop-color:#2f1755"
         offset="1"
         id="stop652" />
    </linearGradient>
    <clipPath
       clipPathUnits="userSpaceOnUse"
       id="clipPath664">
      <path
         d="m 478.139,176.421 c -1.617,-0.455 -3.212,-1.023 -4.813,-1.667 v 0 c -2.426,-0.977 -4.004,-3.358 -4.004,-5.973 v 0 -37.529 c 0,-2.566 2.081,-4.646 4.647,-4.646 v 0 h 7.718 c 2.567,0 4.647,2.08 4.647,4.646 v 0 c 0,0 0.022,25.872 0.066,38.96 v 0 c 0.012,3.683 -3.002,6.458 -6.468,6.458 v 0 c -0.588,0 -1.19,-0.08 -1.793,-0.249"
         id="path662" />
    </clipPath>
    <linearGradient
       x1="0"
       y1="0"
       x2="1"
       y2="0"
       gradientUnits="userSpaceOnUse"
       gradientTransform="matrix(0,49.867077,49.867077,0,477.86099,125.94672)"
       spreadMethod="pad"
       id="linearGradient678">
      <stop
         style="stop-opacity:0;stop-color:#ffffff"
         offset="0"
         id="stop674" />
      <stop
         style="stop-opacity:1;stop-color:#ffffff"
         offset="1"
         id="stop676" />
    </linearGradient>
    <mask
       maskUnits="userSpaceOnUse"
       x="0"
       y="0"
       width="1"
       height="1"
       id="mask680">
      <g
         id="g690">
        <g
           id="g688">
          <g
             id="g686">
            <g
               id="g684">
              <path
                 d="M -32768,32767 H 32767 V -32768 H -32768 Z"
                 style="fill:url(#linearGradient678);stroke:none"
                 id="path682" />
            </g>
          </g>
        </g>
      </g>
    </mask>
    <linearGradient
       x1="0"
       y1="0"
       x2="1"
       y2="0"
       gradientUnits="userSpaceOnUse"
       gradientTransform="matrix(0,49.867077,49.867077,0,477.86099,125.94672)"
       spreadMethod="pad"
       id="linearGradient700">
      <stop
         style="stop-opacity:1;stop-color:#ffffff"
         offset="0"
         id="stop696" />
      <stop
         style="stop-opacity:1;stop-color:#2f1755"
         offset="1"
         id="stop698" />
    </linearGradient>
    <clipPath
       clipPathUnits="userSpaceOnUse"
       id="clipPath710">
      <path
         d="m 539.269,155.553 v -24.301 c 0,-2.566 2.08,-4.646 4.647,-4.646 v 0 h 7.546 c 2.567,0 4.647,2.08 4.647,4.646 v 0 23.011 c 0,2.262 -1.685,4.139 -3.924,4.462 v 0 c -2.522,0.364 -5.011,0.786 -7.46,1.258 v 0 c -0.302,0.058 -0.602,0.086 -0.896,0.086 v 0 c -2.459,0 -4.56,-1.949 -4.56,-4.516"
         id="path708" />
    </clipPath>
    <linearGradient
       x1="0"
       y1="0"
       x2="1"
       y2="0"
       gradientUnits="userSpaceOnUse"
       gradientTransform="matrix(0,35.281345,35.281345,0,547.68909,122.75984)"
       spreadMethod="pad"
       id="linearGradient724">
      <stop
         style="stop-opacity:0;stop-color:#ffffff"
         offset="0"
         id="stop720" />
      <stop
         style="stop-opacity:1;stop-color:#ffffff"
         offset="1"
         id="stop722" />
    </linearGradient>
    <mask
       maskUnits="userSpaceOnUse"
       x="0"
       y="0"
       width="1"
       height="1"
       id="mask726">
      <g
         id="g736">
        <g
           id="g734">
          <g
             id="g732">
            <g
               id="g730">
              <path
                 d="M -32768,32767 H 32767 V -32768 H -32768 Z"
                 style="fill:url(#linearGradient724);stroke:none"
                 id="path728" />
            </g>
          </g>
        </g>
      </g>
    </mask>
    <linearGradient
       x1="0"
       y1="0"
       x2="1"
       y2="0"
       gradientUnits="userSpaceOnUse"
       gradientTransform="matrix(0,35.281345,35.281345,0,547.68909,122.75984)"
       spreadMethod="pad"
       id="linearGradient746">
      <stop
         style="stop-opacity:1;stop-color:#ffffff"
         offset="0"
         id="stop742" />
      <stop
         style="stop-opacity:1;stop-color:#2f1755"
         offset="1"
         id="stop744" />
    </linearGradient>
    <clipPath
       clipPathUnits="userSpaceOnUse"
       id="clipPath756">
      <path
         d="m 609.108,164.789 c -8.902,-4.008 -18.294,-6.182 -27.735,-7.045 v 0 c -3.8,-0.348 -6.071,-4.404 -4.292,-7.78 v 0 c 7.696,-14.601 23.02,-24.581 40.643,-24.581 v 0 c 8.591,0 16.822,2.343 23.965,6.727 v 0 c 3.094,1.899 3.686,6.145 1.119,8.713 v 0 l -21.952,21.951 c -1.977,1.977 -4.596,2.984 -7.27,2.984 v 0 c -1.51,0 -3.038,-0.321 -4.478,-0.969"
         id="path754" />
    </clipPath>
    <linearGradient
       x1="0"
       y1="0"
       x2="1"
       y2="0"
       gradientUnits="userSpaceOnUse"
       gradientTransform="matrix(0,35.85923,35.85923,0,610.44226,124.28689)"
       spreadMethod="pad"
       id="linearGradient770">
      <stop
         style="stop-opacity:0;stop-color:#ffffff"
         offset="0"
         id="stop766" />
      <stop
         style="stop-opacity:1;stop-color:#ffffff"
         offset="1"
         id="stop768" />
    </linearGradient>
    <mask
       maskUnits="userSpaceOnUse"
       x="0"
       y="0"
       width="1"
       height="1"
       id="mask772">
      <g
         id="g782">
        <g
           id="g780">
          <g
             id="g778">
            <g
               id="g776">
              <path
                 d="M -32768,32767 H 32767 V -32768 H -32768 Z"
                 style="fill:url(#linearGradient770);stroke:none"
                 id="path774" />
            </g>
          </g>
        </g>
      </g>
    </mask>
    <linearGradient
       x1="0"
       y1="0"
       x2="1"
       y2="0"
       gradientUnits="userSpaceOnUse"
       gradientTransform="matrix(0,35.85923,35.85923,0,610.44226,124.28689)"
       spreadMethod="pad"
       id="linearGradient792">
      <stop
         style="stop-opacity:1;stop-color:#ffffff"
         offset="0"
         id="stop788" />
      <stop
         style="stop-opacity:1;stop-color:#2f1755"
         offset="1"
         id="stop790" />
    </linearGradient>
  </defs>
  <sodipodi:namedview
     id="namedview4"
     pagecolor="#ffffff"
     bordercolor="#000000"
     borderopacity="0.25"
     inkscape:showpageshadow="2"
     inkscape:pageopacity="0.0"
     inkscape:pagecheckerboard="0"
     inkscape:deskcolor="#d1d1d1" />
  <g
     id="g8"
     inkscape:groupmode="layer"
     inkscape:label="Psync3"
     transform="matrix(1.3333333,0,0,-1.3333333,0,373.33333)">
    <g
       id="g10">
      <g
         id="g12">
        <g
           id="g18">
          <g
             id="g20">
            <path
               d="M 0,0 H 680 V 280 H 0 Z"
               style="fill:url(#linearGradient26);stroke:none"
               id="path28" />
          </g>
        </g>
      </g>
    </g>
    <g
       id="g30">
      <g
         id="g32">
        <g
           id="g38">
          <g
             id="g40">
            <path
               d="M 95.963,167.482 V 127.211 L 136.232,12.126 v 123.3 c 0,17.704 -14.351,32.056 -32.056,32.056 v 0 z"
               style="fill:url(#linearGradient48);stroke:none"
               id="path50" />
          </g>
        </g>
      </g>
    </g>
    <g
       id="g52">
      <g
         id="g54"
         clip-path="url(#clipPath58)">
        <g
           id="g60">
          <g
             id="g62" />
          <g
             id="g92">
            <g
               clip-path="url(#clipPath66)"
               opacity="0.699997"
               id="g90">
              <g
                 id="g88">
                <g
                   id="g86">
                  <g
                     id="g84">
                    <g
                       id="g82">
                      <path
                         d="m 96.828,135.932 c 0,0 -0.325,-0.124 -0.866,-0.342 v -8.378 l 1.882,-3.737 c 31.714,-0.32 36.334,-15.354 38.388,-20.369 v 26.758 z"
                         style="fill:url(#linearGradient78);stroke:none"
                         id="path80" />
                    </g>
                  </g>
                </g>
              </g>
            </g>
          </g>
        </g>
      </g>
    </g>
    <g
       id="g94">
      <g
         id="g96">
        <g
           id="g102">
          <g
             id="g104">
            <path
               d="m 84.239,267.874 c -38.136,0 -70.616,-29.655 -71.97,-67.766 v 0 C 10.846,160.096 42.86,127.211 82.554,127.211 v 0 h 25.178 c 13.187,0 27.083,-11.343 28.5,-24.105 v 0 32.32 c 0,17.704 -14.351,32.056 -32.056,32.056 v 0 H 82.554 c -17.264,0 -31.129,14.554 -29.996,32.062 v 0 c 1.034,15.977 15.015,28.06 31.026,28.06 v 0 h 52.648 l -11.765,23.866 c -4.951,10.044 -15.177,16.404 -26.376,16.404 v 0 z"
               style="fill:url(#linearGradient112);stroke:none"
               id="path114" />
          </g>
        </g>
      </g>
    </g>
    <g
       id="g116">
      <g
         id="g118">
        <g
           id="g124">
          <g
             id="g126">
            <path
               d="m 83.943,267.874 c -30.634,0 -57.39,-19.479 -67.459,-46.655 v 0 c -3.322,-38.721 36.025,-53.737 66.07,-53.737 v 0 c -17.264,0 -31.129,14.554 -29.996,32.062 v 0 c 1.034,15.977 15.015,28.06 31.026,28.06 v 0 h 52.648 l -11.765,23.866 c -4.951,10.044 -15.177,16.404 -26.376,16.404 v 0 z"
               style="fill:url(#linearGradient134);stroke:none"
               id="path136" />
          </g>
        </g>
      </g>
    </g>
    <g
       id="g138">
      <g
         id="g140"
         clip-path="url(#clipPath144)">
        <g
           id="g146">
          <g
             id="g148" />
          <g
             id="g178">
            <g
               clip-path="url(#clipPath152)"
               opacity="0.5"
               id="g176">
              <g
                 id="g174">
                <g
                   id="g172">
                  <g
                     id="g170">
                    <g
                       id="g168">
                      <path
                         d="m 82.554,167.482 c -8.243,0 -15.691,3.339 -21.122,8.713 -44.195,8.183 -44.947,45.024 -44.947,45.024 -3.324,-38.72 36.024,-53.737 66.069,-53.737"
                         style="fill:url(#linearGradient164);stroke:none"
                         id="path166" />
                    </g>
                  </g>
                </g>
              </g>
            </g>
          </g>
        </g>
      </g>
    </g>
    <g
       id="g180">
      <g
         id="g182">
        <g
           id="g188">
          <g
             id="g190">
            <path
               d="m 16.736,209.16 c 0.624,-3.99 1.834,-7.895 3.609,-11.532 v 0 c 3.539,-7.31 9.355,-13.354 16.072,-17.84 v 0 c 6.78,-4.448 14.389,-7.477 22.195,-9.48 v 0 c 7.814,-2.016 15.894,-2.953 23.942,-2.826 v 0 c -4.024,0.066 -8.038,0.392 -12.014,0.961 v 0 c -3.98,0.536 -7.927,1.309 -11.804,2.343 v 0 c -7.742,2.071 -15.259,5.162 -21.91,9.618 v 0 c -6.677,4.362 -12.469,10.259 -16.04,17.442 v 0 c -3.599,7.166 -4.83,15.361 -4.302,23.373 v 0 c -0.378,-4.005 -0.345,-8.062 0.252,-12.059"
               style="fill:url(#linearGradient200);stroke:none"
               id="path202" />
          </g>
        </g>
      </g>
    </g>
    <g
       id="g204">
      <g
         id="g206">
        <g
           id="g212">
          <g
             id="g214">
            <path
               d="m 107.141,127.549 -8.196,-0.053 c -5.464,-0.05 -10.928,-0.149 -16.391,-0.285 v 0 c 5.463,-0.135 10.927,-0.234 16.391,-0.283 v 0 c 1.445,-0.051 2.896,-0.043 4.346,-0.035 v 0 c 4.021,0.022 8.025,0.046 11.823,-1.196 v 0 c 5.152,-1.6 9.896,-4.525 13.67,-8.406 v 0 c 1.913,-1.913 3.569,-4.098 4.83,-6.5 v 0 c 1.294,-2.379 2.227,-4.974 2.618,-7.685 v 0 c -0.558,5.455 -3.218,10.622 -7.036,14.58 v 0 c -3.761,4.037 -8.605,7.028 -13.867,8.72 v 0 c -2.641,0.779 -5.406,1.143 -8.148,1.143 v 0 c -0.013,0 -0.027,0 -0.04,0"
               style="fill:url(#linearGradient224);stroke:none"
               id="path226" />
          </g>
        </g>
      </g>
    </g>
    <g
       id="g228">
      <g
         id="g230">
        <g
           id="g236">
          <g
             id="g238">
            <path
               d="m 168.288,167.482 c -17.704,0 -32.056,-14.352 -32.056,-32.056 v 0 -123.3 l 40.271,115.085 v 40.271 z"
               style="fill:url(#linearGradient246);stroke:none"
               id="path248" />
          </g>
        </g>
      </g>
    </g>
    <g
       id="g250">
      <g
         id="g252"
         clip-path="url(#clipPath256)">
        <g
           id="g258">
          <g
             id="g260" />
          <g
             id="g290">
            <g
               clip-path="url(#clipPath264)"
               opacity="0.699997"
               id="g288">
              <g
                 id="g286">
                <g
                   id="g284">
                  <g
                     id="g282">
                    <g
                       id="g280">
                      <path
                         d="m 175.637,135.932 c 0,0 0.325,-0.124 0.866,-0.342 v -8.378 l -1.882,-3.737 c -31.714,-0.32 -36.335,-15.354 -38.389,-20.369 v 26.758 z"
                         style="fill:url(#linearGradient276);stroke:none"
                         id="path278" />
                    </g>
                  </g>
                </g>
              </g>
            </g>
          </g>
        </g>
      </g>
    </g>
    <g
       id="g292">
      <g
         id="g294">
        <g
           id="g300">
          <g
             id="g302">
            <path
               d="m 174.373,267.874 c -11.198,0 -21.424,-6.36 -26.376,-16.404 v 0 l -11.765,-23.866 h 52.649 c 16.011,0 29.992,-12.083 31.026,-28.06 v 0 c 1.133,-17.508 -12.732,-32.062 -29.996,-32.062 v 0 h -21.623 c -17.704,0 -32.056,-14.352 -32.056,-32.056 v 0 -32.32 c 1.418,12.762 15.314,24.105 28.501,24.105 v 0 h 25.178 c 39.694,0 71.707,32.885 70.285,72.897 v 0 c -1.355,38.111 -33.834,67.766 -71.971,67.766 v 0 z"
               style="fill:url(#linearGradient310);stroke:none"
               id="path312" />
          </g>
        </g>
      </g>
    </g>
    <g
       id="g314">
      <g
         id="g316">
        <g
           id="g322">
          <g
             id="g324">
            <path
               d="m 174.373,267.874 c -11.198,0 -21.424,-6.36 -26.376,-16.404 v 0 l -11.765,-23.866 h 52.649 c 16.011,0 29.992,-12.083 31.026,-28.06 v 0 c 1.133,-17.508 -12.732,-32.062 -29.996,-32.062 v 0 c 30.044,0 69.392,15.016 66.069,53.737 v 0 c -10.069,27.176 -36.825,46.655 -67.459,46.655 v 0 z"
               style="fill:url(#linearGradient332);stroke:none"
               id="path334" />
          </g>
        </g>
      </g>
    </g>
    <g
       id="g336">
      <g
         id="g338"
         clip-path="url(#clipPath342)">
        <g
           id="g344">
          <g
             id="g346" />
          <g
             id="g376">
            <g
               clip-path="url(#clipPath350)"
               opacity="0.5"
               id="g374">
              <g
                 id="g372">
                <g
                   id="g370">
                  <g
                     id="g368">
                    <g
                       id="g366">
                      <path
                         d="m 189.911,167.482 c 8.243,0 15.691,3.339 21.122,8.713 44.194,8.183 44.947,45.024 44.947,45.024 3.323,-38.72 -36.024,-53.737 -66.069,-53.737"
                         style="fill:url(#linearGradient362);stroke:none"
                         id="path364" />
                    </g>
                  </g>
                </g>
              </g>
            </g>
          </g>
        </g>
      </g>
    </g>
    <g
       id="g378">
      <g
         id="g380">
        <g
           id="g386">
          <g
             id="g388">
            <path
               d="m 251.678,197.846 c -3.57,-7.183 -9.363,-13.08 -16.04,-17.442 v 0 c -6.651,-4.456 -14.167,-7.547 -21.91,-9.618 v 0 c -3.877,-1.034 -7.824,-1.807 -11.804,-2.343 v 0 c -3.975,-0.569 -7.99,-0.895 -12.013,-0.961 v 0 c 8.048,-0.127 16.128,0.81 23.943,2.826 v 0 c 7.804,2.003 15.414,5.032 22.194,9.48 v 0 c 6.717,4.486 12.533,10.53 16.071,17.84 v 0 c 1.776,3.637 2.985,7.542 3.61,11.532 v 0 c 0.597,3.997 0.629,8.054 0.251,12.059 v 0 c 0.528,-8.012 -0.702,-16.207 -4.302,-23.373"
               style="fill:url(#linearGradient398);stroke:none"
               id="path400" />
          </g>
        </g>
      </g>
    </g>
    <g
       id="g402">
      <g
         id="g404">
        <g
           id="g410">
          <g
             id="g412">
            <path
               d="m 157.136,126.406 c -5.263,-1.692 -10.106,-4.683 -13.867,-8.72 v 0 c -3.818,-3.958 -6.479,-9.125 -7.037,-14.58 v 0 c 0.392,2.711 1.325,5.306 2.619,7.685 v 0 c 1.26,2.402 2.916,4.587 4.83,6.5 v 0 c 3.773,3.881 8.517,6.806 13.671,8.406 v 0 c 3.797,1.242 7.801,1.219 11.822,1.196 v 0 c 1.449,-0.008 2.901,-0.016 4.346,0.035 v 0 c 5.464,0.049 10.927,0.148 16.391,0.283 v 0 c -5.464,0.136 -10.927,0.235 -16.391,0.285 v 0 l -8.195,0.053 c -0.014,0 -0.027,0 -0.041,0 v 0 c -2.741,0 -5.507,-0.364 -8.148,-1.143"
               style="fill:url(#linearGradient422);stroke:none"
               id="path424" />
          </g>
        </g>
      </g>
    </g>
    <g
       id="g426">
      <g
         id="g428">
        <g
           id="g434">
          <g
             id="g436">
            <path
               d="m 135.986,80.826 -0.124,-22.899 0.123,-22.901 c 0.015,-7.634 0.102,-15.266 0.247,-22.9 v 0 c 0.146,7.634 0.232,15.266 0.247,22.9 v 0 l 0.124,22.901 -0.124,22.899 c -0.015,7.634 -0.103,15.267 -0.247,22.901 v 0 c -0.143,-7.634 -0.231,-15.267 -0.246,-22.901"
               style="fill:url(#linearGradient446);stroke:none"
               id="path448" />
          </g>
        </g>
      </g>
    </g>
    <g
       id="g450">
      <g
         id="g452">
        <g
           id="g458">
          <g
             id="g460">
            <path
               d="m 502.835,215.556 c -5.891,-3.678 -10.117,-8.773 -12.679,-15.305 v 0 19.411 h -24.655 v -96.878 h 24.655 v 51.41 c 0,8.51 2.099,15.042 6.297,19.589 v 0 c 4.198,4.546 9.791,6.816 16.785,6.816 v 0 c 6.881,0 12.296,-2.126 16.267,-6.382 v 0 c 3.956,-4.255 5.941,-10.225 5.941,-17.924 v 0 -53.509 h 24.484 v 56.305 c 0,13.292 -3.322,23.61 -9.968,30.953 v 0 c -6.646,7.35 -15.562,11.022 -26.754,11.022 v 0 c -7.692,0 -14.488,-1.836 -20.373,-5.508"
               style="fill:url(#linearGradient466);stroke:none"
               id="path468" />
          </g>
        </g>
      </g>
    </g>
    <g
       id="g470">
      <g
         id="g472">
        <g
           id="g478">
          <g
             id="g480">
            <path
               d="m 567.971,171.312 c 0,-27.477 22.275,-49.752 49.752,-49.752 v 0 c 13.739,0 26.177,5.569 35.18,14.572 v 0 l -35.18,35.18 35.18,35.18 c -9.003,9.003 -21.441,14.572 -35.18,14.572 v 0 c -27.477,0 -49.752,-22.275 -49.752,-49.752"
               style="fill:url(#linearGradient486);stroke:none"
               id="path488" />
          </g>
        </g>
      </g>
    </g>
    <g
       id="g490">
      <g
         id="g492">
        <g
           id="g498">
          <g
             id="g500">
            <path
               d="m 460.727,219.602 v 0 c 0,0 0,0 0,0 m -0.106,-0.241 c 0.064,0.142 0.103,0.235 0.106,0.241 v 0 z"
               style="fill:url(#linearGradient506);stroke:none"
               id="path508" />
          </g>
        </g>
      </g>
    </g>
    <g
       id="g510">
      <g
         id="g512">
        <g
           id="g518">
          <g
             id="g520">
            <path
               d="M 364.911,203.837 401.566,123.425 384.459,12.126 h 50.886 l -17.11,111.313 42.386,95.922 c -0.882,-1.956 -13.442,-20.382 -27.298,-20.382 v 0 c -17.116,0 -21.047,30.143 -38.973,30.143 v 0 c -13.979,0 -24.683,-19.157 -29.439,-25.285"
               style="fill:url(#linearGradient526);stroke:none"
               id="path528" />
          </g>
        </g>
      </g>
    </g>
    <g
       id="g530">
      <g
         id="g532">
        <g
           id="g538">
          <g
             id="g540">
            <path
               d="m 289.056,213.016 c -6.411,-5.244 -9.613,-12.068 -9.613,-20.457 v 0 c 0,-6.532 1.601,-11.663 4.803,-15.39 v 0 c 3.209,-3.729 7.059,-6.441 11.548,-8.134 v 0 c 4.483,-1.686 10.339,-3.351 17.569,-4.98 v 0 c 5.25,-1.288 9.3,-2.392 12.153,-3.324 v 0 c 2.861,-0.932 5.251,-2.27 7.173,-4.02 v 0 c 1.921,-1.751 2.889,-4.028 2.889,-6.824 v 0 c 0,-3.266 -1.111,-5.913 -3.323,-7.955 v 0 c -2.221,-2.042 -9.063,-3.06 -13.261,-3.06 v 0 c -18.325,0 -32.888,8.745 -32.888,8.745 v 0 l -6.663,-18.151 c 0,0 20.231,-7.906 38.945,-7.906 v 0 c 10.959,0 23.921,2.562 30.389,7.692 v 0 c 6.468,5.131 9.706,11.833 9.706,20.116 v 0 c 0,6.639 -1.658,11.918 -4.982,15.824 v 0 c -3.323,3.9 -7.293,6.76 -11.897,8.567 v 0 c -4.604,1.808 -10.573,3.523 -17.924,5.159 v 0 c -5.244,1.281 -9.264,2.391 -12.06,3.324 v 0 c -2.804,0.931 -5.138,2.213 -6.995,3.849 v 0 c -1.871,1.629 -2.804,3.786 -2.804,6.468 v 0 c 0,3.38 1.168,6.063 3.501,8.04 v 0 c 2.327,1.986 5.593,2.975 9.791,2.975 v 0 c 13.774,0 30.745,-8.334 30.745,-8.334 v 0 l 4.408,16.288 c 0,0 -15.739,9.358 -34.626,9.358 v 0 c -11.307,0 -20.173,-2.625 -26.584,-7.87"
               style="fill:url(#linearGradient546);stroke:none"
               id="path548" />
          </g>
        </g>
      </g>
    </g>
    <g
       id="g550">
      <g
         id="g552"
         clip-path="url(#clipPath556)">
        <g
           id="g558"
           transform="translate(663.6385,175.8408)">
          <path
             d="M 0,0 C -1.815,1.815 -4.759,1.815 -6.574,0 L -7.829,-1.254 -9.083,0 c -1.815,1.816 -4.759,1.815 -6.574,0 -1.816,-1.815 -1.816,-4.759 0,-6.574 L -7.829,-14.403 0,-6.574 C 1.815,-4.759 1.815,-1.815 0,0"
             style="fill:#e12361;fill-opacity:1;fill-rule:nonzero;stroke:none"
             id="path560" />
        </g>
        <g
           id="g562"
           transform="translate(653.1974,174.4491)">
          <path
             d="m 0,0 c -2.59,1.81 -5.631,-1.235 -3.824,-3.824 -0.597,0.408 -1.017,1.128 -1.059,1.912 C -5.163,0.656 -1.466,2.194 0,0"
             style="fill:#ff8dbb;fill-opacity:1;fill-rule:nonzero;stroke:none"
             id="path564" />
        </g>
      </g>
    </g>
    <g
       id="g566">
      <g
         id="g568"
         clip-path="url(#clipPath572)">
        <g
           id="g574">
          <g
             id="g576" />
          <g
             id="g600"
             mask="url(#mask588)">
            <g
               id="g602">
              <path
                 d="m 384.456,182.333 c -2.321,-2.113 -3.051,-5.464 -1.75,-8.32 v 0 L 405.517,123.971 389.659,20.793 c -0.391,-2.548 1.58,-4.845 4.158,-4.845 v 0 h 32.171 c 2.578,0 4.549,2.297 4.157,4.845 v 0 l -15.858,103.168 15.677,35.477 c 1.256,2.841 0.254,6.168 -2.364,7.839 v 0 c -10.733,6.848 -16.204,21.104 -27.11,21.943 v 0 c -0.382,0.029 -0.762,0.043 -1.14,0.043 v 0 c -5.53,0 -10.642,-3.063 -14.894,-6.93"
                 style="fill:url(#linearGradient608);stroke:none"
                 id="path610" />
            </g>
          </g>
        </g>
      </g>
    </g>
    <g
       id="g612">
      <g
         id="g614"
         clip-path="url(#clipPath618)">
        <g
           id="g620">
          <g
             id="g622" />
          <g
             id="g646"
             mask="url(#mask634)">
            <g
               id="g648">
              <path
                 d="m 317.131,174.386 c -0.777,-0.741 -1.497,-1.5 -2.16,-2.26 v 0 c -1.493,-1.715 -0.661,-4.398 1.539,-4.969 v 0 c 3.628,-0.941 8.412,-2.21 10.192,-2.791 v 0 c 3.372,-1.101 6.253,-2.726 8.562,-4.83 v 0 c 2.706,-2.467 4.137,-5.804 4.137,-9.648 v 0 c 0,-4.355 -1.533,-7.978 -4.558,-10.769 v 0 c -4.372,-4.022 -15.735,-4.07 -15.849,-4.07 v 0 c -11.26,0 -21.102,3.077 -27.435,5.691 v 0 c -1.845,0.763 -3.953,-0.128 -4.642,-2.002 v 0 l -1.293,-3.524 c -0.697,-1.898 0.338,-3.98 2.272,-4.571 v 0 c 7.336,-2.243 19.287,-5.26 30.492,-5.26 v 0 c 11.398,0 22.917,2.822 28.014,6.864 v 0 c 5.556,4.407 8.257,10.008 8.257,17.121 v 0 c 0,5.684 -1.369,10.175 -4.067,13.346 v 0 c -2.899,3.403 -6.392,5.923 -10.384,7.489 v 0 c -3.494,1.371 -14.115,4.136 -18.845,5.346 v 0 c -0.356,0.092 -0.715,0.135 -1.07,0.135 v 0 c -1.164,0 -2.292,-0.47 -3.162,-1.298"
                 style="fill:url(#linearGradient654);stroke:none"
                 id="path656" />
            </g>
          </g>
        </g>
      </g>
    </g>
    <g
       id="g658">
      <g
         id="g660"
         clip-path="url(#clipPath664)">
        <g
           id="g666">
          <g
             id="g668" />
          <g
             id="g692"
             mask="url(#mask680)">
            <g
               id="g694">
              <path
                 d="m 478.139,176.421 c -1.617,-0.455 -3.212,-1.023 -4.813,-1.667 v 0 c -2.426,-0.977 -4.004,-3.358 -4.004,-5.973 v 0 -37.529 c 0,-2.566 2.081,-4.646 4.647,-4.646 v 0 h 7.718 c 2.567,0 4.647,2.08 4.647,4.646 v 0 c 0,0 0.022,25.872 0.066,38.96 v 0 c 0.012,3.683 -3.002,6.458 -6.468,6.458 v 0 c -0.588,0 -1.19,-0.08 -1.793,-0.249"
                 style="fill:url(#linearGradient700);stroke:none"
                 id="path702" />
            </g>
          </g>
        </g>
      </g>
    </g>
    <g
       id="g704">
      <g
         id="g706"
         clip-path="url(#clipPath710)">
        <g
           id="g712">
          <g
             id="g714" />
          <g
             id="g738"
             mask="url(#mask726)">
            <g
               id="g740">
              <path
                 d="m 539.269,155.553 v -24.301 c 0,-2.566 2.08,-4.646 4.647,-4.646 v 0 h 7.546 c 2.567,0 4.647,2.08 4.647,4.646 v 0 23.011 c 0,2.262 -1.685,4.139 -3.924,4.462 v 0 c -2.522,0.364 -5.011,0.786 -7.46,1.258 v 0 c -0.302,0.058 -0.602,0.086 -0.896,0.086 v 0 c -2.459,0 -4.56,-1.949 -4.56,-4.516"
                 style="fill:url(#linearGradient746);stroke:none"
                 id="path748" />
            </g>
          </g>
        </g>
      </g>
    </g>
    <g
       id="g750">
      <g
         id="g752"
         clip-path="url(#clipPath756)">
        <g
           id="g758">
          <g
             id="g760" />
          <g
             id="g784"
             mask="url(#mask772)">
            <g
               id="g786">
              <path
                 d="m 609.108,164.789 c -8.902,-4.008 -18.294,-6.182 -27.735,-7.045 v 0 c -3.8,-0.348 -6.071,-4.404 -4.292,-7.78 v 0 c 7.696,-14.601 23.02,-24.581 40.643,-24.581 v 0 c 8.591,0 16.822,2.343 23.965,6.727 v 0 c 3.094,1.899 3.686,6.145 1.119,8.713 v 0 l -21.952,21.951 c -1.977,1.977 -4.596,2.984 -7.27,2.984 v 0 c -1.51,0 -3.038,-0.321 -4.478,-0.969"
                 style="fill:url(#linearGradient792);stroke:none"
                 id="path794" />
            </g>
          </g>
        </g>
      </g>
    </g>
  </g>
</svg>
