<svg width="3753" height="1490" viewBox="0 0 3753 1490" fill="none" xmlns="http://www.w3.org/2000/svg">
<path d="M476.246 584.576V819.069L705.264 1489.19V771.234C705.264 668.146 623.647 584.576 522.955 584.576H476.246Z" fill="url(#paint0_linear_958_463)"/>
<mask id="mask0_958_463" style="mask-type:luminance" maskUnits="userSpaceOnUse" x="478" y="771" width="230" height="192">
<path d="M478.553 771.401H707.576V962.543H478.553V771.401Z" fill="white"/>
</mask>
<g mask="url(#mask0_958_463)">
<g opacity="0.699997">
<path d="M483.475 771.401C483.475 771.401 481.627 772.123 478.55 773.393V822.177L489.253 843.937C669.617 845.8 695.892 933.341 707.574 962.543V806.735L483.475 771.401Z" fill="url(#paint1_linear_958_463)"/>
</g>
</g>
<path d="M409.569 0.00390203C192.681 0.00390203 7.96023 172.681 0.25974 394.597C-7.83317 627.581 174.237 819.067 399.986 819.067H543.178C618.176 819.067 697.205 885.115 705.264 959.427V771.232C705.264 668.144 623.647 584.574 522.955 584.574H399.986C301.802 584.574 222.948 499.828 229.392 397.881C235.272 304.849 314.785 234.491 405.843 234.491H705.264L638.354 95.5223C610.196 37.0373 552.039 0.00390203 488.348 0.00390203H409.569Z" fill="url(#paint2_linear_958_463)"/>
<path d="M407.885 -0.000239915C233.663 -0.000239915 81.4957 113.423 24.2311 271.666C5.33821 497.133 229.113 584.57 399.985 584.57C301.801 584.57 222.948 499.823 229.392 397.877C235.272 304.845 314.785 234.487 405.843 234.487H705.264L638.354 95.5181C610.196 37.0332 552.039 -0.000239915 488.348 -0.000239915H407.885Z" fill="url(#paint3_linear_958_463)"/>
<path d="M25.6625 341.884C29.2113 365.117 36.0929 387.855 46.1877 409.033C66.3147 451.598 99.3916 486.792 137.593 512.913C176.152 538.813 219.426 556.451 263.82 568.114C308.26 579.853 354.213 585.309 399.984 584.569C377.098 584.185 354.27 582.287 331.657 578.974C309.022 575.852 286.575 571.351 264.525 565.331C220.495 553.271 177.744 535.273 139.919 509.326C101.945 483.927 69.0048 449.589 48.6957 407.764C28.2274 366.037 21.2265 318.318 24.2293 271.666C22.0796 294.986 22.2673 318.61 25.6625 341.884Z" fill="url(#paint4_linear_958_463)"/>
<path d="M539.816 817.099L493.204 817.407C462.129 817.698 431.054 818.275 399.985 819.067C431.054 819.853 462.129 820.429 493.204 820.715C501.422 821.011 509.674 820.965 517.921 820.918C540.789 820.79 563.56 820.65 585.161 827.882C614.461 837.199 641.441 854.231 662.905 876.83C673.784 887.969 683.202 900.692 690.374 914.678C697.733 928.531 703.039 943.641 705.263 959.427C702.09 927.663 686.962 897.576 665.248 874.53C643.858 851.023 616.309 833.606 586.383 823.754C571.363 819.218 555.638 817.099 540.044 817.099C539.97 817.099 539.89 817.099 539.816 817.099Z" fill="url(#paint5_linear_958_463)"/>
<path d="M887.573 584.576C786.887 584.576 705.264 668.146 705.264 771.234V1489.19L934.294 819.069V584.576H887.573Z" fill="url(#paint6_linear_958_463)"/>
<mask id="mask1_958_463" style="mask-type:luminance" maskUnits="userSpaceOnUse" x="705" y="768" width="230" height="192">
<path d="M705.262 768.285H934.292V959.427H705.262V768.285Z" fill="white"/>
</mask>
<g mask="url(#mask1_958_463)">
<g opacity="0.699997">
<path d="M929.367 768.285C929.367 768.285 931.215 769.007 934.292 770.277V819.061L923.589 840.821C743.224 842.684 716.944 930.225 705.262 959.427V803.619L929.367 768.285Z" fill="url(#paint7_linear_958_463)"/>
</g>
</g>
<path d="M922.18 0.00390203C858.494 0.00390203 800.337 37.0373 772.174 95.5223L705.264 234.491H1004.69C1095.75 234.491 1175.26 304.849 1181.14 397.881C1187.58 499.828 1108.73 584.574 1010.55 584.574H887.573C786.887 584.574 705.264 668.144 705.264 771.232V959.427C713.328 885.115 792.358 819.067 867.355 819.067H1010.55C1236.3 819.067 1418.36 627.581 1410.27 394.597C1402.57 172.681 1217.85 0.00390203 1000.96 0.00390203H922.18Z" fill="url(#paint8_linear_958_463)"/>
<path d="M922.18 -0.000239915C858.494 -0.000239915 800.337 37.0332 772.174 95.5181L705.264 234.487H1004.69C1095.75 234.487 1175.26 304.845 1181.14 397.877C1187.58 499.823 1108.73 584.57 1010.55 584.57C1181.41 584.57 1405.19 497.133 1386.3 271.666C1329.03 113.423 1176.86 -0.000239915 1002.64 -0.000239915H922.18Z" fill="url(#paint9_linear_958_463)"/>
<mask id="mask2_958_463" style="mask-type:luminance" maskUnits="userSpaceOnUse" x="1010" y="271" width="378" height="314">
<path d="M1010.55 271.666H1387.42V584.57H1010.55V271.666Z" fill="white"/>
</mask>
<g mask="url(#mask2_958_463)">
<g opacity="0.5">
<path d="M1010.55 584.57C1057.43 584.57 1099.79 565.127 1130.67 533.835C1382.01 486.186 1386.3 271.666 1386.3 271.666C1405.2 497.128 1181.42 584.57 1010.55 584.57Z" fill="url(#paint10_linear_958_463)"/>
</g>
</g>
<path d="M1361.83 407.764C1341.53 449.589 1308.58 483.927 1270.61 509.326C1232.78 535.273 1190.04 553.271 1146 565.331C1123.95 571.351 1101.5 575.852 1078.87 578.974C1056.26 582.287 1033.43 584.185 1010.55 584.569C1056.32 585.309 1102.27 579.853 1146.72 568.114C1191.1 556.451 1234.38 538.813 1272.94 512.913C1311.14 486.792 1344.22 451.598 1364.34 409.033C1374.44 387.855 1381.32 365.117 1384.87 341.884C1388.27 318.61 1388.45 294.986 1386.3 271.666C1389.3 318.318 1382.3 366.037 1361.83 407.764Z" fill="url(#paint11_linear_958_463)"/>
<path d="M824.149 823.754C794.217 833.606 766.674 851.023 745.285 874.53C723.571 897.576 708.437 927.663 705.264 959.427C707.493 943.641 712.799 928.531 720.159 914.678C727.324 900.692 736.742 887.969 747.628 876.83C769.086 854.231 796.066 837.199 825.378 827.882C846.972 820.65 869.744 820.784 892.612 820.918C900.853 820.965 909.111 821.011 917.329 820.715C948.403 820.429 979.473 819.853 1010.55 819.067C979.473 818.275 948.403 817.698 917.329 817.407L870.722 817.099C870.642 817.099 870.568 817.099 870.489 817.099C854.9 817.099 839.169 819.218 824.149 823.754Z" fill="url(#paint12_linear_958_463)"/>
<path d="M703.864 1089.16L703.159 1222.5L703.859 1355.85C703.944 1400.3 704.439 1444.74 705.263 1489.19C706.094 1444.74 706.583 1400.3 706.668 1355.85L707.373 1222.5L706.668 1089.16C706.583 1044.71 706.082 1000.26 705.263 955.813C704.45 1000.26 703.95 1044.71 703.864 1089.16Z" fill="url(#paint13_linear_958_463)"/>
<path d="M2790.21 304.646C2756.71 326.063 2732.67 355.73 2718.1 393.765V280.738H2577.88V844.846H2718.1V545.492C2718.1 495.939 2730.04 457.904 2753.91 431.428C2777.79 404.957 2809.6 391.739 2849.37 391.739C2888.51 391.739 2919.3 404.119 2941.89 428.901C2964.39 453.677 2975.67 488.44 2975.67 533.27V844.846H3114.92V516.989C3114.92 439.591 3096.03 379.511 3058.23 336.754C3020.43 293.956 2969.73 272.574 2906.07 272.574C2862.33 272.574 2823.68 283.265 2790.21 304.646Z" fill="url(#paint14_linear_958_463)"/>
<path d="M3160.66 562.273C3160.66 722.268 3287.34 851.972 3443.61 851.972C3521.74 851.972 3592.48 819.545 3643.68 767.121L3443.61 562.273L3643.68 357.424C3592.48 305.001 3521.74 272.573 3443.61 272.573C3287.34 272.573 3160.66 402.278 3160.66 562.273Z" fill="url(#paint15_linear_958_463)"/>
<path d="M2550.13 282.481C2550.5 281.655 2550.72 281.113 2550.73 281.078L2550.13 282.481Z" fill="url(#paint16_linear_958_463)"/>
<path d="M1973.62 415.869L2194.15 865.765L2091.22 1488.47H2397.37L2294.43 865.687L2549.45 329.014C2544.14 339.958 2468.57 443.049 2385.21 443.049C2282.23 443.049 2258.58 274.402 2150.73 274.402C2066.63 274.402 2002.23 381.583 1973.62 415.869Z" fill="url(#paint17_linear_958_463)"/>
<path d="M1574.41 319.436C1537.95 349.971 1519.74 389.706 1519.74 438.554C1519.74 476.589 1528.84 506.466 1547.05 528.168C1565.3 549.882 1587.2 565.673 1612.73 575.531C1638.22 585.349 1671.53 595.044 1712.65 604.529C1742.5 612.029 1765.54 618.458 1781.76 623.885C1798.03 629.312 1811.63 637.103 1822.56 647.293C1833.48 657.488 1838.99 670.747 1838.99 687.028C1838.99 706.045 1832.67 721.458 1820.09 733.349C1807.46 745.239 1768.55 751.167 1744.67 751.167C1640.45 751.167 1557.63 700.246 1557.63 700.246L1519.74 805.937C1519.74 805.937 1634.79 851.972 1741.22 851.972C1803.55 851.972 1877.27 837.054 1914.05 807.183C1950.84 777.306 1969.25 738.281 1969.25 690.05C1969.25 651.392 1959.82 620.653 1940.92 597.909C1922.02 575.2 1899.44 558.546 1873.26 548.024C1847.08 537.496 1813.13 527.51 1771.32 517.984C1741.5 510.525 1718.64 504.062 1702.73 498.629C1686.79 493.208 1673.51 485.743 1662.95 476.217C1652.31 466.731 1647 454.171 1647 438.554C1647 418.873 1653.65 403.25 1666.92 391.738C1680.15 380.174 1698.72 374.415 1722.6 374.415C1800.94 374.415 1897.45 422.943 1897.45 422.943L1922.52 328.1C1922.52 328.1 1833.01 273.61 1725.6 273.61C1661.29 273.61 1610.87 288.895 1574.41 319.436Z" fill="url(#paint18_linear_958_463)"/>
<mask id="mask3_958_463" style="mask-type:luminance" maskUnits="userSpaceOnUse" x="2063" y="457" width="316" height="1010">
<path d="M2078.77 498.101C2063.64 510.405 2058.89 529.917 2067.36 546.547L2216.02 837.935L2112.68 1438.73C2110.13 1453.56 2122.97 1466.94 2139.77 1466.94H2349.43C2366.23 1466.94 2379.07 1453.56 2376.52 1438.73L2273.17 837.994L2375.34 631.415C2383.52 614.873 2376.99 595.5 2359.93 585.77C2289.99 545.895 2254.33 462.884 2183.26 457.999C2180.77 457.83 2178.29 457.748 2175.83 457.748C2139.79 457.748 2106.48 475.584 2078.77 498.101Z" fill="white"/>
</mask>
<g mask="url(#mask3_958_463)">
<mask id="mask4_958_463" style="mask-type:luminance" maskUnits="userSpaceOnUse" x="-213971" y="-189239" width="427082" height="381603">
<path d="M-213970 -189238H213110V192364H-213970V-189238Z" fill="url(#paint19_linear_958_463)"/>
</mask>
<g mask="url(#mask4_958_463)">
<path d="M2078.75 498.114C2063.62 510.418 2058.87 529.931 2067.34 546.561L2216 837.949L2112.66 1438.74C2110.11 1453.58 2122.95 1466.95 2139.75 1466.95H2349.41C2366.21 1466.95 2379.05 1453.58 2376.5 1438.74L2273.15 838.007L2375.32 631.429C2383.5 614.886 2376.97 595.514 2359.91 585.784C2289.97 545.909 2254.31 462.898 2183.24 458.012C2180.75 457.843 2178.27 457.762 2175.81 457.762C2139.77 457.762 2106.46 475.597 2078.75 498.114Z" fill="url(#paint20_linear_958_463)"/>
</g>
</g>
<mask id="mask5_958_463" style="mask-type:luminance" maskUnits="userSpaceOnUse" x="1553" y="536" width="395" height="294">
<path d="M1734.07 544.373C1729.65 548.687 1725.56 553.107 1721.79 557.532C1713.3 567.519 1718.03 583.141 1730.54 586.466C1751.17 591.946 1778.38 599.335 1788.5 602.718C1807.68 609.129 1824.07 618.591 1837.2 630.842C1852.59 645.207 1860.73 664.638 1860.73 687.021C1860.73 712.38 1852.01 733.476 1834.8 749.728C1809.94 773.148 1745.32 773.427 1744.67 773.427C1680.63 773.427 1624.66 755.51 1588.64 740.289C1578.15 735.846 1566.16 741.034 1562.24 751.946L1554.89 772.466C1550.92 783.518 1556.81 795.641 1567.81 799.083C1609.53 812.143 1677.5 829.711 1741.22 829.711C1806.04 829.711 1871.56 813.279 1900.54 789.743C1932.14 764.081 1947.5 731.467 1947.5 690.049C1947.5 656.952 1939.72 630.802 1924.37 612.337C1907.89 592.522 1888.02 577.848 1865.32 568.73C1845.45 560.747 1785.04 544.646 1758.14 537.601C1756.12 537.065 1754.07 536.815 1752.06 536.815C1745.44 536.815 1739.02 539.551 1734.07 544.373Z" fill="white"/>
</mask>
<g mask="url(#mask5_958_463)">
<mask id="mask6_958_463" style="mask-type:luminance" maskUnits="userSpaceOnUse" x="-186429" y="-189239" width="372713" height="381603">
<path d="M-186428 -189238H186283V192364H-186428V-189238Z" fill="url(#paint21_linear_958_463)"/>
</mask>
<g mask="url(#mask6_958_463)">
<path d="M1734.08 544.381C1729.66 548.695 1725.57 553.115 1721.8 557.54C1713.31 567.526 1718.04 583.149 1730.55 586.474C1751.18 591.953 1778.39 599.343 1788.51 602.726C1807.69 609.137 1824.08 618.599 1837.21 630.85C1852.6 645.215 1860.74 664.646 1860.74 687.029C1860.74 712.388 1852.02 733.484 1834.81 749.736C1809.95 773.155 1745.33 773.435 1744.68 773.435C1680.64 773.435 1624.67 755.518 1588.65 740.297C1578.16 735.854 1566.17 741.042 1562.25 751.954L1554.89 772.474C1550.93 783.526 1556.82 795.649 1567.82 799.09C1609.54 812.151 1677.51 829.719 1741.23 829.719C1806.05 829.719 1871.56 813.287 1900.55 789.751C1932.15 764.089 1947.51 731.475 1947.51 690.057C1947.51 656.96 1939.73 630.809 1924.38 612.345C1907.89 592.53 1888.03 577.856 1865.33 568.738C1845.45 560.754 1785.05 544.654 1758.15 537.609C1756.13 537.073 1754.08 536.822 1752.06 536.822C1745.44 536.822 1739.03 539.559 1734.08 544.381Z" fill="url(#paint22_linear_958_463)"/>
</g>
</g>
<mask id="mask7_958_463" style="mask-type:luminance" maskUnits="userSpaceOnUse" x="2599" y="531" width="98" height="292">
<path d="M2649.76 532.524C2640.57 535.173 2631.49 538.481 2622.39 542.23C2608.59 547.919 2599.62 561.784 2599.62 577.01V795.537C2599.62 810.479 2611.45 822.59 2626.05 822.59H2669.94C2684.54 822.59 2696.37 810.479 2696.37 795.537C2696.37 795.537 2696.49 644.888 2696.74 568.678C2696.81 547.232 2679.67 531.074 2659.96 531.074C2656.61 531.074 2653.19 531.54 2649.76 532.524Z" fill="white"/>
</mask>
<g mask="url(#mask7_958_463)">
<mask id="mask8_958_463" style="mask-type:luminance" maskUnits="userSpaceOnUse" x="-186429" y="-189239" width="372713" height="381603">
<path d="M-186428 -189238H186283V192364H-186428V-189238Z" fill="url(#paint23_linear_958_463)"/>
</mask>
<g mask="url(#mask8_958_463)">
<path d="M2649.74 532.527C2640.54 535.177 2631.47 538.484 2622.37 542.234C2608.57 547.923 2599.59 561.787 2599.59 577.014V795.541C2599.59 810.482 2611.43 822.594 2626.02 822.594H2669.92C2684.52 822.594 2696.34 810.482 2696.34 795.541C2696.34 795.541 2696.47 644.891 2696.72 568.682C2696.79 547.236 2679.65 531.077 2659.94 531.077C2656.59 531.077 2653.17 531.543 2649.74 532.527Z" fill="url(#paint24_linear_958_463)"/>
</g>
</g>
<mask id="mask9_958_463" style="mask-type:luminance" maskUnits="userSpaceOnUse" x="2997" y="627" width="97" height="196">
<path d="M2997.42 654.035V795.537C2997.42 810.479 3009.25 822.59 3023.85 822.59H3066.77C3081.37 822.59 3093.2 810.479 3093.2 795.537V661.547C3093.2 648.376 3083.61 637.446 3070.88 635.565C3056.54 633.446 3042.38 630.988 3028.45 628.24C3026.73 627.902 3025.03 627.739 3023.36 627.739C3009.37 627.739 2997.42 639.088 2997.42 654.035Z" fill="white"/>
</mask>
<g mask="url(#mask9_958_463)">
<mask id="mask10_958_463" style="mask-type:luminance" maskUnits="userSpaceOnUse" x="-186429" y="-189239" width="372713" height="381603">
<path d="M-186428 -189238H186283V192364H-186428V-189238Z" fill="url(#paint25_linear_958_463)"/>
</mask>
<g mask="url(#mask10_958_463)">
<path d="M2997.42 654.039V795.541C2997.42 810.482 3009.25 822.594 3023.85 822.594H3066.77C3081.37 822.594 3093.19 810.482 3093.19 795.541V661.551C3093.19 648.379 3083.61 637.45 3070.88 635.569C3056.53 633.449 3042.38 630.992 3028.45 628.244C3026.73 627.906 3025.03 627.743 3023.36 627.743C3009.37 627.743 2997.42 639.092 2997.42 654.039Z" fill="url(#paint26_linear_958_463)"/>
</g>
</g>
<mask id="mask11_958_463" style="mask-type:luminance" maskUnits="userSpaceOnUse" x="3208" y="594" width="388" height="236">
<path d="M3394.61 600.255C3343.98 623.593 3290.57 636.252 3236.88 641.277C3215.27 643.303 3202.35 666.921 3212.47 686.579C3256.24 771.599 3343.39 829.711 3443.61 829.711C3492.47 829.711 3539.28 816.068 3579.91 790.54C3597.5 779.483 3600.87 754.759 3586.27 739.806L3461.43 611.988C3450.18 600.476 3435.29 594.612 3420.08 594.612C3411.49 594.612 3402.8 596.482 3394.61 600.255Z" fill="white"/>
</mask>
<g mask="url(#mask11_958_463)">
<mask id="mask12_958_463" style="mask-type:luminance" maskUnits="userSpaceOnUse" x="-186429" y="-189239" width="372713" height="381603">
<path d="M-186428 -189238H186283V192364H-186428V-189238Z" fill="url(#paint27_linear_958_463)"/>
</mask>
<g mask="url(#mask12_958_463)">
<path d="M3394.63 600.263C3344 623.601 3290.59 636.26 3236.9 641.285C3215.29 643.311 3202.37 666.929 3212.49 686.587C3256.26 771.606 3343.41 829.719 3443.63 829.719C3492.49 829.719 3539.3 816.076 3579.93 790.548C3597.52 779.491 3600.89 754.767 3586.29 739.814L3461.45 611.996C3450.2 600.484 3435.31 594.62 3420.1 594.62C3411.51 594.62 3402.82 596.489 3394.63 600.263Z" fill="url(#paint28_linear_958_463)"/>
</g>
</g>
<g filter="url(#filter0_d_958_463)">
<path d="M3742.11 544.664C3732.98 534.322 3717.04 533.226 3706.52 542.216L3699.25 548.427L3692.94 541.282C3683.8 530.934 3667.86 529.843 3657.35 538.833C3646.83 547.824 3645.71 563.503 3654.86 573.846L3694.28 618.457L3739.63 579.677C3750.14 570.686 3751.25 555.007 3742.11 544.664Z" fill="#E12361"/>
<path d="M3706.85 542.596L3706.85 542.596L3699.58 548.807L3699.2 549.127L3698.88 548.759L3692.56 541.613L3692.56 541.613C3683.61 531.47 3667.98 530.4 3657.67 539.213L3657.67 539.213C3647.37 548.022 3646.27 563.38 3655.23 573.514L3655.23 573.514L3694.33 617.758L3739.3 579.297C3749.6 570.488 3750.69 555.129 3741.74 544.996C3732.78 534.858 3717.15 533.783 3706.85 542.596Z" stroke="black"/>
</g>
<path d="M3685.06 548.189C3671.72 537.584 3654.11 552.669 3662.91 567.13C3659.83 564.735 3657.83 560.744 3657.9 556.553C3657.36 542.772 3677.96 535.958 3685.06 548.189Z" fill="#FF8DBB"/>
<defs>
<filter id="filter0_d_958_463" x="3644.67" y="532.745" width="107.634" height="93.7122" filterUnits="userSpaceOnUse" color-interpolation-filters="sRGB">
<feFlood flood-opacity="0" result="BackgroundImageFix"/>
<feColorMatrix in="SourceAlpha" type="matrix" values="0 0 0 0 0 0 0 0 0 0 0 0 0 0 0 0 0 0 127 0" result="hardAlpha"/>
<feOffset dy="4"/>
<feGaussianBlur stdDeviation="2"/>
<feComposite in2="hardAlpha" operator="out"/>
<feColorMatrix type="matrix" values="0 0 0 0 0 0 0 0 0 0 0 0 0 0 0 0 0 0 0.25 0"/>
<feBlend mode="normal" in2="BackgroundImageFix" result="effect1_dropShadow_958_463"/>
<feBlend mode="normal" in="SourceGraphic" in2="effect1_dropShadow_958_463" result="shape"/>
</filter>
<linearGradient id="paint0_linear_958_463" x1="590.754" y1="1463.59" x2="590.754" y2="947.249" gradientUnits="userSpaceOnUse">
<stop stop-color="#D841AC"/>
<stop offset="1" stop-color="#8753ED"/>
</linearGradient>
<linearGradient id="paint1_linear_958_463" x1="593.063" y1="792.571" x2="593.063" y2="1011.7" gradientUnits="userSpaceOnUse">
<stop stop-color="#D841AC"/>
<stop offset="1" stop-color="#8753ED"/>
</linearGradient>
<linearGradient id="paint2_linear_958_463" x1="373.74" y1="385.864" x2="658.007" y2="638.56" gradientUnits="userSpaceOnUse">
<stop stop-color="#D841AC"/>
<stop offset="1" stop-color="#E665D3"/>
</linearGradient>
<linearGradient id="paint3_linear_958_463" x1="465.604" y1="115.532" x2="122.208" y2="495.181" gradientUnits="userSpaceOnUse">
<stop stop-color="#D841AC"/>
<stop offset="1" stop-color="#8753ED"/>
</linearGradient>
<linearGradient id="paint4_linear_958_463" x1="21.0017" y1="428.15" x2="399.984" y2="428.15" gradientUnits="userSpaceOnUse">
<stop stop-color="#8753ED"/>
<stop offset="0.490955" stop-color="white"/>
<stop offset="1" stop-color="#8753ED"/>
</linearGradient>
<linearGradient id="paint5_linear_958_463" x1="399.986" y1="888.263" x2="707.362" y2="888.263" gradientUnits="userSpaceOnUse">
<stop stop-color="#8753ED"/>
<stop offset="0.490955" stop-color="white"/>
<stop offset="1" stop-color="#8753ED"/>
</linearGradient>
<linearGradient id="paint6_linear_958_463" x1="819.779" y1="1463.59" x2="819.779" y2="947.249" gradientUnits="userSpaceOnUse">
<stop stop-color="#FC9700"/>
<stop offset="1" stop-color="#FF4868"/>
</linearGradient>
<linearGradient id="paint7_linear_958_463" x1="819.777" y1="789.455" x2="819.777" y2="1008.58" gradientUnits="userSpaceOnUse">
<stop stop-color="#D841AC"/>
<stop offset="1" stop-color="#8753ED"/>
</linearGradient>
<linearGradient id="paint8_linear_958_463" x1="1087.31" y1="643.01" x2="1510.18" y2="1112.34" gradientUnits="userSpaceOnUse">
<stop stop-color="#FC9700"/>
<stop offset="1" stop-color="#FF4868"/>
</linearGradient>
<linearGradient id="paint9_linear_958_463" x1="961.521" y1="132.808" x2="1250.14" y2="463.205" gradientUnits="userSpaceOnUse">
<stop stop-color="#FC9700"/>
<stop offset="1" stop-color="#FF4868"/>
</linearGradient>
<linearGradient id="paint10_linear_958_463" x1="1198.98" y1="306.321" x2="1198.98" y2="665.039" gradientUnits="userSpaceOnUse">
<stop stop-color="#D841AC"/>
<stop offset="1" stop-color="#8753ED"/>
</linearGradient>
<linearGradient id="paint11_linear_958_463" x1="1389.53" y1="428.15" x2="1010.55" y2="428.15" gradientUnits="userSpaceOnUse">
<stop stop-color="#FC9700"/>
<stop offset="0.490955" stop-color="white"/>
<stop offset="1" stop-color="#FC9700"/>
</linearGradient>
<linearGradient id="paint12_linear_958_463" x1="1010.55" y1="888.263" x2="703.169" y2="888.263" gradientUnits="userSpaceOnUse">
<stop stop-color="#FC9700"/>
<stop offset="0.490955" stop-color="white"/>
<stop offset="1" stop-color="#FC9700"/>
</linearGradient>
<linearGradient id="paint13_linear_958_463" x1="705.266" y1="1489.19" x2="705.266" y2="955.815" gradientUnits="userSpaceOnUse">
<stop stop-color="#FC9700"/>
<stop offset="0.5" stop-color="#FFD69C"/>
<stop offset="1" stop-color="#FC9700"/>
</linearGradient>
<linearGradient id="paint14_linear_958_463" x1="2846.4" y1="391.891" x2="2846.4" y2="2504.34" gradientUnits="userSpaceOnUse">
<stop stop-color="white"/>
<stop offset="1" stop-color="#2F1755"/>
</linearGradient>
<linearGradient id="paint15_linear_958_463" x1="3402.17" y1="391.89" x2="3402.17" y2="2504.34" gradientUnits="userSpaceOnUse">
<stop stop-color="white"/>
<stop offset="1" stop-color="#2F1755"/>
</linearGradient>
<linearGradient id="paint16_linear_958_463" x1="2550.43" y1="394.207" x2="2550.43" y2="881.957" gradientUnits="userSpaceOnUse">
<stop stop-color="white"/>
<stop offset="1" stop-color="#47326A"/>
</linearGradient>
<linearGradient id="paint17_linear_958_463" x1="2261.53" y1="434.131" x2="2261.53" y2="2463.87" gradientUnits="userSpaceOnUse">
<stop stop-color="white"/>
<stop offset="1" stop-color="#2F1755"/>
</linearGradient>
<linearGradient id="paint18_linear_958_463" x1="1744.49" y1="391.89" x2="1744.49" y2="2504.34" gradientUnits="userSpaceOnUse">
<stop stop-color="white"/>
<stop offset="1" stop-color="#2F1755"/>
</linearGradient>
<linearGradient id="paint19_linear_958_463" x1="2221.03" y1="1287.26" x2="2221.03" y2="469.036" gradientUnits="userSpaceOnUse">
<stop stop-color="white" stop-opacity="0"/>
<stop offset="1" stop-color="white"/>
</linearGradient>
<linearGradient id="paint20_linear_958_463" x1="2221" y1="1287.27" x2="2221" y2="469.049" gradientUnits="userSpaceOnUse">
<stop stop-color="white"/>
<stop offset="1" stop-color="#2F1755"/>
</linearGradient>
<linearGradient id="paint21_linear_958_463" x1="1750.58" y1="833.75" x2="1750.58" y2="549.989" gradientUnits="userSpaceOnUse">
<stop stop-color="white" stop-opacity="0"/>
<stop offset="1" stop-color="white"/>
</linearGradient>
<linearGradient id="paint22_linear_958_463" x1="1750.59" y1="833.782" x2="1750.59" y2="550.021" gradientUnits="userSpaceOnUse">
<stop stop-color="white"/>
<stop offset="1" stop-color="#2F1755"/>
</linearGradient>
<linearGradient id="paint23_linear_958_463" x1="2648.16" y1="826.411" x2="2648.16" y2="536.041" gradientUnits="userSpaceOnUse">
<stop stop-color="white" stop-opacity="0"/>
<stop offset="1" stop-color="white"/>
</linearGradient>
<linearGradient id="paint24_linear_958_463" x1="2648.16" y1="826.433" x2="2648.16" y2="536.063" gradientUnits="userSpaceOnUse">
<stop stop-color="white"/>
<stop offset="1" stop-color="#2F1755"/>
</linearGradient>
<linearGradient id="paint25_linear_958_463" x1="3045.33" y1="844.971" x2="3045.33" y2="639.533" gradientUnits="userSpaceOnUse">
<stop stop-color="white" stop-opacity="0"/>
<stop offset="1" stop-color="white"/>
</linearGradient>
<linearGradient id="paint26_linear_958_463" x1="3045.31" y1="844.989" x2="3045.31" y2="639.551" gradientUnits="userSpaceOnUse">
<stop stop-color="white"/>
<stop offset="1" stop-color="#2F1755"/>
</linearGradient>
<linearGradient id="paint27_linear_958_463" x1="3402.21" y1="836.08" x2="3402.21" y2="627.276" gradientUnits="userSpaceOnUse">
<stop stop-color="white" stop-opacity="0"/>
<stop offset="1" stop-color="white"/>
</linearGradient>
<linearGradient id="paint28_linear_958_463" x1="3402.22" y1="836.101" x2="3402.22" y2="627.298" gradientUnits="userSpaceOnUse">
<stop stop-color="white"/>
<stop offset="1" stop-color="#2F1755"/>
</linearGradient>
</defs>
</svg>