<svg width="309" height="131" viewBox="0 0 309 131" fill="none" xmlns="http://www.w3.org/2000/svg">
<g filter="url(#filter0_f_52096_16331)">
<ellipse cx="1.11711" cy="1.28631" rx="1.11711" ry="1.28631" transform="matrix(0.983615 -0.180284 0.181399 0.98341 298.178 46.3053)" fill="#FFA9B7"/>
</g>
<g filter="url(#filter1_iii_52096_16331)">
<path d="M298.607 56.6645C295.77 53.2879 294.113 51.4439 294.398 49.0776C294.623 47.2035 296.019 46.409 296.051 46.3861C298.294 44.9959 299.997 46.8372 300.374 47.4338C300.865 46.9119 302.907 45.3976 304.799 47.0436C305.075 47.2819 305.969 48.1868 305.91 49.7555C305.803 52.4733 303.001 54.4693 300.135 56.7914C299.894 56.9889 299.607 57.0682 299.331 57.0465C299.061 57.0252 298.802 56.8965 298.607 56.6645V56.6645Z" fill="url(#paint0_linear_52096_16331)"/>
</g>
<path d="M299.615 47.6563C298.969 47.817 297.778 48.5393 298.186 50.1425C298.351 49.5465 298.867 48.2149 299.615 47.6563Z" fill="#FF748D"/>
<g filter="url(#filter2_iii_52096_16331)">
<path d="M142 67.4909C138.171 67.4909 135.49 66.2459 132.5 64.9909C129.51 63.7359 125.836 57.7917 124 55.4909L130.886 52.0927C132.46 53.8183 133.771 57.1127 135.765 57.8971C137.758 58.6291 139.778 58.9952 141.824 58.9952C143.45 58.9952 144.761 58.6291 145.758 57.8971C146.755 57.165 147.253 56.1453 147.253 54.838C147.253 53.6876 146.781 52.7725 145.837 52.0927C144.893 51.4652 142.637 50.6808 139.07 49.7396C133.771 48.38 130.02 46.5236 127.817 44.1705C125.876 42.0788 126 36.9909 126 36.4909C126 35.9909 126.5 32.5773 128.5 29.9909C130.5 27.4045 131.087 26.5367 133.5 25.4909C135.913 24.445 137.968 24.0119 140.801 24.0119C144.053 24.0119 147.122 24.5871 150.007 25.7376C152.893 26.888 155.542 28.0902 157.483 30.0773L153.5 36.816C152.031 35.4564 148.25 34.3134 146.309 33.4245C144.42 32.4832 142.663 32.0126 141.037 32.0126C137.26 32.0126 135.371 33.3199 135.371 35.9345C135.424 37.1895 136.001 38.183 137.102 38.9151C138.152 39.6472 140.538 40.51 144.263 41.5036C149.247 42.8109 152.761 44.5365 154.807 46.6805C156.591 48.5107 157.483 50.9423 157.483 53.9752C157.483 56.4852 157 58.9909 156 60.9909C155 62.9909 153.5 64.4909 150 66.4909C147.534 67.589 145.095 67.4909 142 67.4909Z" fill="url(#paint1_linear_52096_16331)"/>
<path d="M204.125 130.777L176 127.491L183.512 67.0701L161.29 30.0773C161.29 30.0773 179.928 7.40338 187.097 30.0773C194.265 52.7512 212.904 30.0773 212.904 30.0773L191.888 67.0701L198.006 98.9236L204.125 130.777Z" fill="url(#paint2_linear_52096_16331)"/>
<path d="M226.921 27.8312V34.0706C228.338 32.1881 230.226 30.6455 232.587 29.4428C234.948 28.2401 237.413 27.6387 239.984 27.6387C249.531 27.6387 254.305 33.2863 254.305 44.5813V69.9166L243.603 67.0701V45.3657C243.603 39.4567 241.111 36.6068 236.128 36.816C233.557 36.816 231.407 37.6003 229.675 39.1691C227.997 40.7378 227.158 42.6726 227.158 44.9735V69.9166L216.377 67.0701C216.377 50.6348 216.377 44.2666 216.377 27.8312H226.921Z" fill="url(#paint3_linear_52096_16331)"/>
</g>
<g filter="url(#filter3_iii_52096_16331)">
<path d="M298.853 34.7907C296.084 31.2952 292.365 28.7286 288.165 27.4154C283.965 26.1021 279.474 26.1013 275.26 27.413C271.045 28.7247 267.296 31.29 264.487 34.7845C261.677 38.279 259.934 42.5458 259.477 47.0452C259.021 51.5447 259.871 56.0747 261.92 60.0625C263.97 64.0503 267.127 67.3167 270.992 69.4488C274.857 71.5808 279.256 72.4826 283.634 72.0403C288.012 71.5979 292.172 69.8312 295.587 66.9635L281.586 49.2899L298.853 34.7907Z" fill="url(#paint4_linear_52096_16331)"/>
</g>
<g filter="url(#filter4_iii_52096_16331)">
<g opacity="0.800003">
<path d="M61.0836 69.2099V129.945L41.2476 70.4672V50.6312L45.2943 51.2006C54.0143 52.4259 61.0836 60.4886 61.0836 69.2099Z" fill="url(#paint5_linear_52096_16331)"/>
<mask id="mask0_52096_16331" style="mask-type:luminance" maskUnits="userSpaceOnUse" x="41" y="66" width="21" height="20">
<path d="M41.2476 66.2325H61.0836V85.1299H41.2476V66.2325Z" fill="white"/>
</mask>
<g mask="url(#mask0_52096_16331)">
<g opacity="0.699997">
<path d="M41.6742 66.2325C41.6742 66.2325 41.5142 66.2712 41.2476 66.3405V70.4672L42.1742 72.4392C57.7969 74.7925 60.0716 82.5165 61.0836 85.1299V71.9485L41.6742 66.2325Z" fill="url(#paint6_linear_52096_16331)"/>
</g>
</g>
<path d="M45.2943 51.2005L34.6435 49.7032C26.2275 48.5205 19.4529 40.5486 19.8529 32.1019C20.2276 24.1899 27.0876 19.0272 35.0609 20.1472L60.4995 23.5005L50.9995 7.00055L35.3275 0.348559C15.9022 -2.38211 -0.365744 11.2299 0.00625624 30.7032C0.366256 49.5752 15.7355 66.8819 34.6435 69.5392L47.0449 71.2819C53.5409 72.1952 60.3849 78.7446 61.0836 85.1299V69.2099C61.0836 60.4885 54.0143 52.4259 45.2943 51.2005Z" fill="url(#paint7_linear_52096_16331)"/>
<path d="M19.8527 32.1019C20.2274 24.1899 27.0874 19.0273 35.0607 20.1473L60.4995 23.5006C60.4995 23.5006 56.9995 9.00061 50.9995 5.50061C44.9995 2.00061 35.3273 0.348591 35.3273 0.348591C20.238 -1.77274 7.05805 5.96993 2.09805 18.6593C0.462052 37.5019 19.8433 47.6232 34.6433 49.7032C26.2273 48.5206 19.4527 40.5486 19.8527 32.1019Z" fill="url(#paint8_linear_52096_16331)"/>
<mask id="mask1_52096_16331" style="mask-type:luminance" maskUnits="userSpaceOnUse" x="2" y="18" width="33" height="32">
<path d="M2.00244 18.6593H34.6438V49.7032H2.00244V18.6593Z" fill="white"/>
</mask>
<g mask="url(#mask1_52096_16331)">
<g opacity="0.5">
<path d="M34.6438 49.7032C30.5825 49.1326 26.9145 46.9726 24.2385 43.9499C2.46918 36.8592 2.09854 18.6593 2.09854 18.6593C0.462541 37.5019 19.8438 47.6232 34.6438 49.7032Z" fill="url(#paint9_linear_52096_16331)"/>
</g>
</g>
<path d="M2.09836 18.6593C1.83836 22.5699 2.44502 26.6912 4.21835 30.4699C5.97568 34.2552 8.83033 37.5619 12.1183 40.1726C15.3943 42.8273 19.097 44.8712 22.9117 46.4272C24.821 47.2046 26.765 47.8579 28.725 48.3979C30.6837 48.9539 32.661 49.3926 34.6436 49.7032C30.6783 49.2086 26.6983 48.1872 22.849 46.6539C19.005 45.1259 15.257 43.1086 11.917 40.4486C8.609 37.7726 5.74365 34.3926 4.00098 30.5473C3.12632 28.6326 2.53034 26.6259 2.22234 24.6179C1.92767 22.6073 1.91302 20.6059 2.09836 18.6593Z" fill="url(#paint10_linear_52096_16331)"/>
<path d="M34.6436 69.5392C37.3342 69.8512 40.0262 70.1805 42.7169 70.5339L46.7542 71.0752C48.1102 71.2645 49.4796 71.6352 50.7876 72.2059C53.3796 73.4032 55.7649 75.2112 57.6182 77.4606C59.4982 79.6739 60.8089 82.4045 61.0836 85.1299C60.8916 83.7672 60.4316 82.4245 59.7943 81.1632C59.1729 79.8925 58.3569 78.7019 57.4142 77.6272C55.5556 75.4539 53.2196 73.6845 50.6809 72.5392C48.1369 71.3499 45.4022 71.2859 42.7169 70.8139C40.0262 70.4112 37.3342 69.9845 34.6436 69.5392Z" fill="url(#paint11_linear_52096_16331)"/>
<path d="M61.0835 69.2099V129.945L80.9195 76.0432V56.2072L76.8742 55.6379C68.1529 54.4126 61.0835 60.4886 61.0835 69.2099Z" fill="url(#paint12_linear_52096_16331)"/>
<mask id="mask2_52096_16331" style="mask-type:luminance" maskUnits="userSpaceOnUse" x="61" y="71" width="20" height="15">
<path d="M61.0835 71.6872H80.9195V85.1299H61.0835V71.6872Z" fill="white"/>
</mask>
<g mask="url(#mask2_52096_16331)">
<g opacity="0.699997">
<path d="M80.4928 71.6872C80.4928 71.6872 80.6542 71.7712 80.9195 71.9165V76.0432L79.9928 77.7539C64.3715 75.7166 62.0955 82.8005 61.0835 85.1299V71.9485L80.4928 71.6872Z" fill="url(#paint13_linear_52096_16331)"/>
</g>
</g>
<path d="M76.8742 55.6379L87.5248 57.1352C95.9395 58.3179 102.716 52.2499 102.316 43.6912C101.94 35.6739 95.0795 28.5819 87.1062 27.4619L60.9995 23.5005L72.9995 8.50055L86.8408 7.58855C106.266 10.3179 122.533 28.5019 122.162 47.8712C121.802 66.6419 106.431 79.6285 87.5248 76.9712L75.1222 75.2285C68.6275 74.3152 61.7822 78.9419 61.0835 85.1299V69.2099C61.0835 60.4885 68.1529 54.4125 76.8742 55.6379Z" fill="url(#paint14_linear_52096_16331)"/>
<path d="M102.29 43.6005C101.914 35.5307 95.0439 28.3924 87.0592 27.2651L60.9995 23.5839C60.9995 23.5839 67.4995 12.0006 71.9995 9.00061C76.4995 6.00061 86.7934 7.26195 86.7934 7.26195C101.904 9.3958 115.102 20.9186 120.069 35.0933C121.708 54.522 102.299 59.2259 87.4784 57.1323C95.905 58.3227 102.691 52.215 102.29 43.6005Z" fill="url(#paint15_linear_52096_16331)"/>
<mask id="mask3_52096_16331" style="mask-type:luminance" maskUnits="userSpaceOnUse" x="87" y="35" width="34" height="23">
<path d="M87.5249 35.2392H120.166V57.5899H87.5249V35.2392Z" fill="white"/>
</mask>
<g mask="url(#mask3_52096_16331)">
<g opacity="0.5">
<path d="M87.5249 57.1353C91.5849 57.7059 95.2543 56.5766 97.929 54.3059C119.698 53.3339 120.069 35.2393 120.069 35.2393C121.706 54.5419 102.325 59.2153 87.5249 57.1353Z" fill="url(#paint16_linear_52096_16331)"/>
</g>
</g>
<path d="M120.069 35.2392C120.256 37.2379 120.24 39.2352 119.945 41.1619C119.638 43.0846 119.042 44.9232 118.168 46.5926C116.424 49.9486 113.56 52.5232 110.25 54.2686C106.912 55.9899 103.164 56.9539 99.3183 57.4006C95.4689 57.8526 91.4889 57.7552 87.5249 57.1352C89.5062 57.3819 91.4836 57.4992 93.4422 57.4939C95.4022 57.5046 97.3476 57.3979 99.2569 57.1566C103.07 56.6726 106.773 55.6699 110.049 53.9352C113.338 52.2486 116.192 49.7459 117.95 46.4539C119.724 43.1739 120.329 39.2219 120.069 35.2392Z" fill="url(#paint17_linear_52096_16331)"/>
<path d="M87.5248 76.9712C84.8328 76.6605 82.1422 76.3312 79.4515 75.9765C76.7648 75.6939 74.0315 74.9886 71.4862 75.4632C68.9488 75.8952 66.6115 77.0072 64.7528 78.6579C63.8102 79.4672 62.9942 80.4299 62.3742 81.5245C61.7355 82.6072 61.2768 83.8219 61.0835 85.1299C61.3582 82.4805 62.6688 80.1206 64.5501 78.4352C66.4021 76.7072 68.7889 75.5685 71.3809 75.0992C72.6875 74.8979 74.0568 74.9112 75.4141 75.1032L79.4515 75.6966C82.1422 76.0992 84.8328 76.5259 87.5248 76.9712Z" fill="url(#paint18_linear_52096_16331)"/>
<path d="M61.0836 84.8232C61.1542 88.5939 61.1982 92.3606 61.2049 96.1206L61.2663 107.41L61.2049 118.682C61.1982 122.441 61.1556 126.194 61.0836 129.945C61.0129 126.174 60.9689 122.409 60.9622 118.647L60.9009 107.358L60.9622 96.0872C60.9702 92.3272 61.0129 88.5739 61.0836 84.8232Z" fill="url(#paint19_linear_52096_16331)"/>
</g>
</g>
<defs>
<filter id="filter0_f_52096_16331" x="292.893" y="40.595" width="13.2326" height="13.5478" filterUnits="userSpaceOnUse" color-interpolation-filters="sRGB">
<feFlood flood-opacity="0" result="BackgroundImageFix"/>
<feBlend mode="normal" in="SourceGraphic" in2="BackgroundImageFix" result="shape"/>
<feGaussianBlur stdDeviation="2.74639" result="effect1_foregroundBlur_52096_16331"/>
</filter>
<filter id="filter1_iii_52096_16331" x="294.366" y="45.8783" width="11.5469" height="15.1716" filterUnits="userSpaceOnUse" color-interpolation-filters="sRGB">
<feFlood flood-opacity="0" result="BackgroundImageFix"/>
<feBlend mode="normal" in="SourceGraphic" in2="BackgroundImageFix" result="shape"/>
<feColorMatrix in="SourceAlpha" type="matrix" values="0 0 0 0 0 0 0 0 0 0 0 0 0 0 0 0 0 0 127 0" result="hardAlpha"/>
<feOffset dy="4"/>
<feGaussianBlur stdDeviation="2"/>
<feComposite in2="hardAlpha" operator="arithmetic" k2="-1" k3="1"/>
<feColorMatrix type="matrix" values="0 0 0 0 0 0 0 0 0 0 0 0 0 0 0 0 0 0 0.25 0"/>
<feBlend mode="normal" in2="shape" result="effect1_innerShadow_52096_16331"/>
<feColorMatrix in="SourceAlpha" type="matrix" values="0 0 0 0 0 0 0 0 0 0 0 0 0 0 0 0 0 0 127 0" result="hardAlpha"/>
<feOffset dy="4"/>
<feGaussianBlur stdDeviation="2"/>
<feComposite in2="hardAlpha" operator="arithmetic" k2="-1" k3="1"/>
<feColorMatrix type="matrix" values="0 0 0 0 0 0 0 0 0 0 0 0 0 0 0 0 0 0 0.25 0"/>
<feBlend mode="normal" in2="effect1_innerShadow_52096_16331" result="effect2_innerShadow_52096_16331"/>
<feColorMatrix in="SourceAlpha" type="matrix" values="0 0 0 0 0 0 0 0 0 0 0 0 0 0 0 0 0 0 127 0" result="hardAlpha"/>
<feOffset dy="4"/>
<feGaussianBlur stdDeviation="2"/>
<feComposite in2="hardAlpha" operator="arithmetic" k2="-1" k3="1"/>
<feColorMatrix type="matrix" values="0 0 0 0 0 0 0 0 0 0 0 0 0 0 0 0 0 0 0.25 0"/>
<feBlend mode="normal" in2="effect2_innerShadow_52096_16331" result="effect3_innerShadow_52096_16331"/>
</filter>
<filter id="filter2_iii_52096_16331" x="124" y="20" width="130.305" height="114.777" filterUnits="userSpaceOnUse" color-interpolation-filters="sRGB">
<feFlood flood-opacity="0" result="BackgroundImageFix"/>
<feBlend mode="normal" in="SourceGraphic" in2="BackgroundImageFix" result="shape"/>
<feColorMatrix in="SourceAlpha" type="matrix" values="0 0 0 0 0 0 0 0 0 0 0 0 0 0 0 0 0 0 127 0" result="hardAlpha"/>
<feOffset dy="4"/>
<feGaussianBlur stdDeviation="2"/>
<feComposite in2="hardAlpha" operator="arithmetic" k2="-1" k3="1"/>
<feColorMatrix type="matrix" values="0 0 0 0 0 0 0 0 0 0 0 0 0 0 0 0 0 0 0.25 0"/>
<feBlend mode="normal" in2="shape" result="effect1_innerShadow_52096_16331"/>
<feColorMatrix in="SourceAlpha" type="matrix" values="0 0 0 0 0 0 0 0 0 0 0 0 0 0 0 0 0 0 127 0" result="hardAlpha"/>
<feOffset dy="4"/>
<feGaussianBlur stdDeviation="2"/>
<feComposite in2="hardAlpha" operator="arithmetic" k2="-1" k3="1"/>
<feColorMatrix type="matrix" values="0 0 0 0 0 0 0 0 0 0 0 0 0 0 0 0 0 0 0.25 0"/>
<feBlend mode="normal" in2="effect1_innerShadow_52096_16331" result="effect2_innerShadow_52096_16331"/>
<feColorMatrix in="SourceAlpha" type="matrix" values="0 0 0 0 0 0 0 0 0 0 0 0 0 0 0 0 0 0 127 0" result="hardAlpha"/>
<feOffset dy="4"/>
<feGaussianBlur stdDeviation="2"/>
<feComposite in2="hardAlpha" operator="arithmetic" k2="-1" k3="1"/>
<feColorMatrix type="matrix" values="0 0 0 0 0 0 0 0 0 0 0 0 0 0 0 0 0 0 0.25 0"/>
<feBlend mode="normal" in2="effect2_innerShadow_52096_16331" result="effect3_innerShadow_52096_16331"/>
</filter>
<filter id="filter3_iii_52096_16331" x="259.357" y="26.4299" width="39.4961" height="49.7201" filterUnits="userSpaceOnUse" color-interpolation-filters="sRGB">
<feFlood flood-opacity="0" result="BackgroundImageFix"/>
<feBlend mode="normal" in="SourceGraphic" in2="BackgroundImageFix" result="shape"/>
<feColorMatrix in="SourceAlpha" type="matrix" values="0 0 0 0 0 0 0 0 0 0 0 0 0 0 0 0 0 0 127 0" result="hardAlpha"/>
<feOffset dy="4"/>
<feGaussianBlur stdDeviation="2"/>
<feComposite in2="hardAlpha" operator="arithmetic" k2="-1" k3="1"/>
<feColorMatrix type="matrix" values="0 0 0 0 0 0 0 0 0 0 0 0 0 0 0 0 0 0 0.25 0"/>
<feBlend mode="normal" in2="shape" result="effect1_innerShadow_52096_16331"/>
<feColorMatrix in="SourceAlpha" type="matrix" values="0 0 0 0 0 0 0 0 0 0 0 0 0 0 0 0 0 0 127 0" result="hardAlpha"/>
<feOffset dy="4"/>
<feGaussianBlur stdDeviation="2"/>
<feComposite in2="hardAlpha" operator="arithmetic" k2="-1" k3="1"/>
<feColorMatrix type="matrix" values="0 0 0 0 0 0 0 0 0 0 0 0 0 0 0 0 0 0 0.25 0"/>
<feBlend mode="normal" in2="effect1_innerShadow_52096_16331" result="effect2_innerShadow_52096_16331"/>
<feColorMatrix in="SourceAlpha" type="matrix" values="0 0 0 0 0 0 0 0 0 0 0 0 0 0 0 0 0 0 127 0" result="hardAlpha"/>
<feOffset dy="4"/>
<feGaussianBlur stdDeviation="2"/>
<feComposite in2="hardAlpha" operator="arithmetic" k2="-1" k3="1"/>
<feColorMatrix type="matrix" values="0 0 0 0 0 0 0 0 0 0 0 0 0 0 0 0 0 0 0.25 0"/>
<feBlend mode="normal" in2="effect2_innerShadow_52096_16331" result="effect3_innerShadow_52096_16331"/>
</filter>
<filter id="filter4_iii_52096_16331" x="0" y="0" width="122.168" height="133.945" filterUnits="userSpaceOnUse" color-interpolation-filters="sRGB">
<feFlood flood-opacity="0" result="BackgroundImageFix"/>
<feBlend mode="normal" in="SourceGraphic" in2="BackgroundImageFix" result="shape"/>
<feColorMatrix in="SourceAlpha" type="matrix" values="0 0 0 0 0 0 0 0 0 0 0 0 0 0 0 0 0 0 127 0" result="hardAlpha"/>
<feOffset dy="4"/>
<feGaussianBlur stdDeviation="2"/>
<feComposite in2="hardAlpha" operator="arithmetic" k2="-1" k3="1"/>
<feColorMatrix type="matrix" values="0 0 0 0 0 0 0 0 0 0 0 0 0 0 0 0 0 0 0.25 0"/>
<feBlend mode="normal" in2="shape" result="effect1_innerShadow_52096_16331"/>
<feColorMatrix in="SourceAlpha" type="matrix" values="0 0 0 0 0 0 0 0 0 0 0 0 0 0 0 0 0 0 127 0" result="hardAlpha"/>
<feOffset dy="4"/>
<feGaussianBlur stdDeviation="2"/>
<feComposite in2="hardAlpha" operator="arithmetic" k2="-1" k3="1"/>
<feColorMatrix type="matrix" values="0 0 0 0 0 0 0 0 0 0 0 0 0 0 0 0 0 0 0.25 0"/>
<feBlend mode="normal" in2="effect1_innerShadow_52096_16331" result="effect2_innerShadow_52096_16331"/>
<feColorMatrix in="SourceAlpha" type="matrix" values="0 0 0 0 0 0 0 0 0 0 0 0 0 0 0 0 0 0 127 0" result="hardAlpha"/>
<feOffset dy="4"/>
<feGaussianBlur stdDeviation="2"/>
<feComposite in2="hardAlpha" operator="arithmetic" k2="-1" k3="1"/>
<feColorMatrix type="matrix" values="0 0 0 0 0 0 0 0 0 0 0 0 0 0 0 0 0 0 0.25 0"/>
<feBlend mode="normal" in2="effect2_innerShadow_52096_16331" result="effect3_innerShadow_52096_16331"/>
</filter>
<linearGradient id="paint0_linear_52096_16331" x1="299.164" y1="48.0161" x2="301.934" y2="54.4468" gradientUnits="userSpaceOnUse">
<stop stop-color="#FF5A90"/>
<stop offset="1" stop-color="#FF2C6B"/>
</linearGradient>
<linearGradient id="paint1_linear_52096_16331" x1="132.152" y1="17.9907" x2="132.152" y2="134.546" gradientUnits="userSpaceOnUse">
<stop stop-color="white"/>
<stop offset="1" stop-color="white" stop-opacity="0"/>
</linearGradient>
<linearGradient id="paint2_linear_52096_16331" x1="189.152" y1="20" x2="189.152" y2="130.777" gradientUnits="userSpaceOnUse">
<stop stop-color="white"/>
<stop offset="1" stop-color="white" stop-opacity="0.27"/>
</linearGradient>
<linearGradient id="paint3_linear_52096_16331" x1="132.152" y1="17.9907" x2="132.152" y2="134.546" gradientUnits="userSpaceOnUse">
<stop stop-color="white"/>
<stop offset="1" stop-color="#27074F" stop-opacity="0.77"/>
</linearGradient>
<linearGradient id="paint4_linear_52096_16331" x1="280.658" y1="26.2116" x2="276.039" y2="71.7108" gradientUnits="userSpaceOnUse">
<stop stop-color="white"/>
<stop offset="1" stop-color="#6C4CAF"/>
</linearGradient>
<linearGradient id="paint5_linear_52096_16331" x1="51.1658" y1="126.385" x2="57.1856" y2="83.5513" gradientUnits="userSpaceOnUse">
<stop stop-color="#D941AD"/>
<stop offset="1" stop-color="#8853EE"/>
</linearGradient>
<linearGradient id="paint6_linear_52096_16331" x1="51.1658" y1="69.357" x2="48.611" y2="87.5347" gradientUnits="userSpaceOnUse">
<stop stop-color="#D941AD"/>
<stop offset="1" stop-color="#8853EE"/>
</linearGradient>
<linearGradient id="paint7_linear_52096_16331" x1="33.1578" y1="31.8531" x2="57.3395" y2="57.0901" gradientUnits="userSpaceOnUse">
<stop stop-color="#D941AD"/>
<stop offset="1" stop-color="#E765D4"/>
</linearGradient>
<linearGradient id="paint8_linear_52096_16331" x1="41.5358" y1="9.62527" x2="11.1388" y2="39.3105" gradientUnits="userSpaceOnUse">
<stop stop-color="#D941AD"/>
<stop offset="1" stop-color="#8853EE"/>
</linearGradient>
<linearGradient id="paint9_linear_52096_16331" x1="18.3227" y1="23.8715" x2="14.1405" y2="53.629" gradientUnits="userSpaceOnUse">
<stop stop-color="#D941AD"/>
<stop offset="1" stop-color="#8853EE"/>
</linearGradient>
<linearGradient id="paint10_linear_52096_16331" x1="1.81895" y1="31.858" x2="34.6432" y2="31.858" gradientUnits="userSpaceOnUse">
<stop stop-color="#8853EE"/>
<stop offset="0.490955" stop-color="white"/>
<stop offset="1" stop-color="#8853EE"/>
</linearGradient>
<linearGradient id="paint11_linear_52096_16331" x1="34.6431" y1="75.3934" x2="61.2655" y2="75.3934" gradientUnits="userSpaceOnUse">
<stop stop-color="#8853EE"/>
<stop offset="0.490955" stop-color="white"/>
<stop offset="1" stop-color="#8853EE"/>
</linearGradient>
<linearGradient id="paint12_linear_52096_16331" x1="71.002" y1="129.172" x2="77.0218" y2="86.3391" gradientUnits="userSpaceOnUse">
<stop stop-color="#FD9800"/>
<stop offset="1" stop-color="#FF4868"/>
</linearGradient>
<linearGradient id="paint13_linear_52096_16331" x1="71.002" y1="72.1448" x2="68.4473" y2="90.3225" gradientUnits="userSpaceOnUse">
<stop stop-color="#D941AD"/>
<stop offset="1" stop-color="#8853EE"/>
</linearGradient>
<linearGradient id="paint14_linear_52096_16331" x1="93.8155" y1="62.5841" x2="129.364" y2="110.658" gradientUnits="userSpaceOnUse">
<stop stop-color="#FD9800"/>
<stop offset="1" stop-color="#FF4868"/>
</linearGradient>
<linearGradient id="paint15_linear_52096_16331" x1="80.5755" y1="14.8424" x2="109.919" y2="54.1404" gradientUnits="userSpaceOnUse">
<stop stop-color="#FD9800"/>
<stop offset="1" stop-color="#FF4868"/>
</linearGradient>
<linearGradient id="paint16_linear_52096_16331" x1="103.845" y1="35.891" x2="99.6632" y2="65.6485" gradientUnits="userSpaceOnUse">
<stop stop-color="#D941AD"/>
<stop offset="1" stop-color="#8853EE"/>
</linearGradient>
<linearGradient id="paint17_linear_52096_16331" x1="120.349" y1="48.5163" x2="87.5246" y2="48.5163" gradientUnits="userSpaceOnUse">
<stop stop-color="#FD9800"/>
<stop offset="0.490955" stop-color="white"/>
<stop offset="1" stop-color="#FD9800"/>
</linearGradient>
<linearGradient id="paint18_linear_52096_16331" x1="87.5246" y1="82.8254" x2="60.9022" y2="82.8254" gradientUnits="userSpaceOnUse">
<stop stop-color="#FD9800"/>
<stop offset="0.490955" stop-color="white"/>
<stop offset="1" stop-color="#FD9800"/>
</linearGradient>
<linearGradient id="paint19_linear_52096_16331" x1="61.0839" y1="129.944" x2="67.3013" y2="85.6975" gradientUnits="userSpaceOnUse">
<stop stop-color="#FD9800"/>
<stop offset="0.5" stop-color="#FFD79D"/>
<stop offset="1" stop-color="#FD9800"/>
</linearGradient>
</defs>
</svg>
