<svg width="224" height="82" viewBox="0 0 224 82" fill="none" xmlns="http://www.w3.org/2000/svg">
<g filter="url(#filter0_di_474_249)">
<path d="M97.8998 27.6412C92.1959 23.9019 88.9116 21.9012 88.491 18.4046C88.1582 15.6352 90.0645 13.9597 90.1057 13.9146C93.1269 11.0597 96.4836 13.0386 97.2949 13.7474C97.8767 12.811 100.536 9.85604 104.119 11.4824C104.64 11.7171 106.379 12.6676 106.862 14.9358C107.69 18.8674 104.012 22.8045 100.353 27.2333C100.045 27.6092 99.6223 27.8333 99.1799 27.9086C98.7467 27.9823 98.2923 27.8979 97.8998 27.6412Z" fill="url(#paint0_linear_474_249)"/>
</g>
<g filter="url(#filter1_f_474_249)">
<ellipse cx="98.3986" cy="16.1502" rx="1.81096" ry="1.90005" transform="rotate(-10.4187 98.3986 16.1502)" fill="#4D308A"/>
</g>
<path d="M96.9925 13.5117C96.0341 13.9909 94.4249 15.4838 95.6551 17.6214C95.6959 16.7047 96.0204 14.5995 96.9925 13.5117Z" fill="#8416F3" stroke="#A586FF" stroke-width="1.3732"/>
<path d="M0.53125 81.0274L14.8701 1.19474H30.512C34.2441 1.19474 37.5006 2.01801 40.2813 3.66452C43.0987 5.27445 45.2758 7.5247 46.8125 10.4153C48.3859 13.3058 49.1725 16.6354 49.1725 20.4041C49.1725 24.2094 48.3859 27.5573 46.8125 30.4478C45.2758 33.3018 43.117 35.552 40.3362 37.1985C37.5555 38.8085 3.53125 32.4236 18.5312 53.9601L0.53125 81.0274ZM30.2376 8.38453H22.7734V32.4237H30.2376C33.6404 32.4237 36.3114 31.3443 38.2506 29.1855C40.1899 27.0267 41.1595 24.0996 41.1595 20.4041C41.1595 16.7452 40.1716 13.8364 38.1958 11.6776C36.2565 9.48223 33.6038 8.38453 30.2376 8.38453Z" fill="url(#paint1_linear_474_249)"/>
<path d="M70.1776 33.9809C67.5066 33.9809 64.6343 33.5448 62.5488 32.6667C60.4632 31.7885 58.7801 30.5445 57.4994 28.9345L62.2195 24.928C63.3171 26.1355 64.5612 27.0136 65.9516 27.5625C67.3419 28.0747 68.7506 28.3308 70.1776 28.3308C71.3119 28.3308 72.2266 28.0747 72.9218 27.5625C73.617 27.0502 73.9646 26.3367 73.9646 25.422C73.9646 24.617 73.6353 23.9767 72.9767 23.5011C72.3181 23.062 70.7447 22.5131 68.2567 21.8545C64.5612 20.9032 61.945 19.6043 60.4083 17.9578C59.0545 16.4942 58.3776 14.683 58.3776 12.5243C58.3776 10.8046 58.8898 9.30439 59.9143 8.02377C60.9388 6.70655 62.1714 5.79196 63.8545 5.06017C65.5376 4.32839 67.4883 3.8526 69.4641 3.8526C71.7327 3.8526 73.8731 4.25508 75.8855 5.06004C77.8979 5.865 79.581 6.96268 80.9348 8.35307L76.8734 12.7987C75.8489 11.8474 74.6598 11.0607 73.306 10.4387C71.9888 9.78005 70.763 9.45075 69.6288 9.45075C66.9943 9.45075 65.6771 10.3655 65.6771 12.195C65.7137 13.0731 66.1162 13.7683 66.8846 14.2805C67.6164 14.7928 69.2812 15.3965 71.879 16.0917C75.355 17.0064 77.8065 18.2139 79.2334 19.7141C80.4775 20.9947 81.0995 22.6961 81.0995 24.8183C81.0995 26.5745 80.5872 28.1479 79.5628 29.5383C78.5748 30.9287 77.221 32.0264 75.5013 32.8313C73.7816 33.5997 72.3364 33.9809 70.1776 33.9809Z" fill="url(#paint2_linear_474_249)"/>
<path d="M139.055 81.0274H119.555L124.234 33.9079L108.734 8.02362C108.734 8.02362 121.734 -7.8416 126.734 8.02362C131.734 23.8889 144.734 8.02362 144.734 8.02362L130.076 33.9079L139.055 81.0274Z" fill="url(#paint3_linear_474_249)"/>
<path d="M157.386 5.19474V9.56053C158.374 8.24332 159.691 7.16393 161.337 6.32238C162.984 5.48083 164.704 5.06004 166.496 5.06004C173.156 5.06004 176.485 9.01168 176.485 16.915V34.6424H169.021V17.4638C169.021 13.3292 167.283 11.3351 163.807 11.4815C162.014 11.4815 160.514 12.0303 159.307 13.128C158.136 14.2257 157.55 15.5795 157.55 17.1894V34.6424H150.031V5.19474H157.386Z" fill="url(#paint4_linear_474_249)"/>
<path d="M26.1741 52.1795C24.9154 52.1795 23.8177 51.9234 22.8811 51.4111C21.9444 50.8989 21.2126 50.1964 20.6857 49.3036C20.1588 48.4108 19.8954 47.3863 19.8954 46.2301C19.8954 45.3373 20.0417 44.5177 20.3344 43.7713C20.6272 43.0249 21.037 42.3809 21.5638 41.8394C22.0907 41.2832 22.7127 40.8588 23.4299 40.5661C24.1617 40.2587 24.952 40.105 25.8009 40.105C26.5912 40.105 27.323 40.2514 27.9962 40.5441C28.6695 40.8222 29.2476 41.2247 29.7306 41.7516C30.2282 42.2638 30.6087 42.8712 30.8721 43.5737C31.1356 44.2762 31.2527 45.0446 31.2234 45.8788L31.2015 46.8448H21.8712L21.3663 44.9348H28.6329L28.2816 45.33V44.847C28.2524 44.4518 28.1206 44.0933 27.8865 43.7713C27.6669 43.4493 27.3815 43.2005 27.0303 43.0249C26.679 42.8492 26.2839 42.7614 25.8448 42.7614C25.2008 42.7614 24.652 42.8858 24.1983 43.1346C23.7592 43.3834 23.4226 43.7493 23.1884 44.2323C22.9542 44.7153 22.8372 45.3007 22.8372 45.9886C22.8372 46.6911 22.9835 47.2985 23.2762 47.8107C23.5836 48.323 24.008 48.7255 24.5495 49.0182C25.1057 49.2963 25.757 49.4353 26.5034 49.4353C27.0156 49.4353 27.484 49.3548 27.9084 49.1938C28.3329 49.0328 28.7866 48.7547 29.2695 48.3596L30.7624 50.4452C30.3379 50.8257 29.8696 51.1477 29.3574 51.4111C28.8451 51.6599 28.3182 51.8502 27.7767 51.9819C27.2352 52.1136 26.701 52.1795 26.1741 52.1795ZM33.7467 51.96V40.3465H36.7543L36.8641 44.0786L36.3372 43.3103C36.5128 42.7102 36.7982 42.1687 37.1934 41.6857C37.5886 41.1881 38.0496 40.8002 38.5765 40.5222C39.118 40.2441 39.6815 40.105 40.2669 40.105C40.5157 40.105 40.7572 40.127 40.9914 40.1709C41.2255 40.2148 41.4231 40.266 41.5841 40.3246L40.7499 43.7493C40.5742 43.6615 40.362 43.5883 40.1132 43.5298C39.8644 43.4566 39.6083 43.42 39.3448 43.42C38.9936 43.42 38.6643 43.4859 38.3569 43.6176C38.0642 43.7347 37.8081 43.9103 37.5886 44.1445C37.369 44.364 37.1934 44.6275 37.0617 44.9348C36.9446 45.2422 36.886 45.5788 36.886 45.9447V51.96H33.7467ZM47.5001 52.1795C46.417 52.1795 45.4511 52.0039 44.6022 51.6526C43.768 51.2867 43.0947 50.7891 42.5825 50.1598L44.5144 48.4913C44.9681 48.9743 45.473 49.3255 46.0292 49.5451C46.5853 49.75 47.1415 49.8524 47.6977 49.8524C47.9172 49.8524 48.1148 49.8305 48.2904 49.7866C48.4807 49.728 48.6417 49.6548 48.7734 49.567C48.9051 49.4646 49.0002 49.3475 49.0588 49.2158C49.132 49.0694 49.1685 48.9157 49.1685 48.7547C49.1685 48.4328 49.0368 48.1766 48.7734 47.9864C48.627 47.9132 48.4002 47.8254 48.0928 47.7229C47.7855 47.6058 47.3903 47.4814 46.9073 47.3497C46.1609 47.1595 45.5243 46.9399 44.9974 46.6911C44.4851 46.4277 44.0753 46.135 43.768 45.813C43.5045 45.5056 43.2996 45.1763 43.1533 44.8251C43.0215 44.4592 42.9557 44.0567 42.9557 43.6176C42.9557 43.0907 43.0728 42.6151 43.3069 42.1906C43.5411 41.7516 43.8631 41.3784 44.2729 41.071C44.6973 40.7637 45.1803 40.5295 45.7218 40.3685C46.2634 40.1929 46.8341 40.105 47.4342 40.105C48.0343 40.105 48.6197 40.1782 49.1905 40.3246C49.7613 40.4709 50.2882 40.6832 50.7711 40.9612C51.2688 41.2247 51.7005 41.5393 52.0664 41.9052L50.3979 43.7493C50.1345 43.5005 49.8345 43.2737 49.4978 43.0688C49.1759 42.8639 48.8392 42.7029 48.488 42.5858C48.1367 42.4687 47.8221 42.4102 47.544 42.4102C47.2952 42.4102 47.0683 42.4321 46.8634 42.476C46.6732 42.5199 46.5122 42.5858 46.3804 42.6736C46.2487 42.7614 46.1463 42.8785 46.0731 43.0249C46.0145 43.1566 45.9853 43.3029 45.9853 43.4639C45.9853 43.6249 46.0219 43.7786 46.095 43.925C46.1829 44.0713 46.2999 44.1957 46.4463 44.2982C46.6073 44.386 46.8415 44.4884 47.1488 44.6055C47.4708 44.7226 47.9026 44.8543 48.4441 45.0007C49.1466 45.191 49.7393 45.4032 50.2223 45.6373C50.7199 45.8715 51.1151 46.1423 51.4078 46.4496C51.6566 46.7131 51.8396 47.0131 51.9566 47.3497C52.0737 47.6863 52.1323 48.0595 52.1323 48.4693C52.1323 49.1865 51.9274 49.8305 51.5176 50.4013C51.1224 50.9574 50.5736 51.3965 49.8711 51.7185C49.1685 52.0258 48.3782 52.1795 47.5001 52.1795ZM59.9748 52.1795C58.7893 52.1795 57.7283 51.9234 56.7916 51.4111C55.8695 50.8842 55.1377 50.1671 54.5962 49.2597C54.0693 48.3523 53.8059 47.3131 53.8059 46.1423C53.8059 44.9714 54.0693 43.9396 54.5962 43.0468C55.1377 42.1394 55.8695 41.4223 56.7916 40.8954C57.7283 40.3685 58.7893 40.105 59.9748 40.105C61.1457 40.105 62.1921 40.3685 63.1142 40.8954C64.0509 41.4223 64.7827 42.1394 65.3095 43.0468C65.8364 43.9396 66.0999 44.9714 66.0999 46.1423C66.0999 47.3131 65.8364 48.3523 65.3095 49.2597C64.7827 50.1671 64.0509 50.8842 63.1142 51.4111C62.1921 51.9234 61.1457 52.1795 59.9748 52.1795ZM59.9748 49.4573C60.5456 49.4573 61.0579 49.3182 61.5116 49.0401C61.9653 48.7474 62.3165 48.3523 62.5653 47.8546C62.8288 47.3424 62.9605 46.7716 62.9605 46.1423C62.9605 45.4983 62.8288 44.9275 62.5653 44.4299C62.3165 43.9176 61.9653 43.5225 61.5116 43.2444C61.0579 42.9517 60.5456 42.8053 59.9748 42.8053C59.3894 42.8053 58.8698 42.9517 58.4161 43.2444C57.9624 43.5371 57.6038 43.9323 57.3404 44.4299C57.077 44.9275 56.9526 45.4983 56.9672 46.1423C56.9526 46.7716 57.077 47.3424 57.3404 47.8546C57.6038 48.3523 57.9624 48.7474 58.4161 49.0401C58.8698 49.3182 59.3894 49.4573 59.9748 49.4573ZM68.6648 51.96V40.3465H71.6505L71.7383 42.7175L71.1236 42.981C71.2846 42.4541 71.57 41.9784 71.9798 41.554C72.4043 41.1149 72.9092 40.7637 73.4946 40.5002C74.08 40.2368 74.6947 40.105 75.3387 40.105C76.2169 40.105 76.9486 40.2807 77.5341 40.6319C78.1341 40.9832 78.5805 41.5174 78.8732 42.2345C79.1806 42.9371 79.3343 43.8079 79.3343 44.847V51.96H76.2169V45.0885C76.2169 44.5616 76.1437 44.1225 75.9973 43.7713C75.851 43.42 75.6241 43.1639 75.3168 43.0029C75.024 42.8273 74.6582 42.7541 74.2191 42.7834C73.8678 42.7834 73.5385 42.8419 73.2312 42.959C72.9385 43.0615 72.6823 43.2151 72.4628 43.42C72.2579 43.6249 72.0896 43.8591 71.9579 44.1225C71.8408 44.386 71.7822 44.6714 71.7822 44.9787V51.96H70.2455C69.9089 51.96 69.6088 51.96 69.3454 51.96C69.082 51.96 68.8551 51.96 68.6648 51.96ZM86.8878 52.1795C85.9219 52.1795 85.051 51.9161 84.2753 51.3892C83.4997 50.8623 82.885 50.1451 82.4312 49.2377C81.9775 48.3303 81.7507 47.2912 81.7507 46.1203C81.7507 44.9495 81.9775 43.9176 82.4312 43.0249C82.8996 42.1175 83.5289 41.4076 84.3193 40.8954C85.1096 40.3685 86.0097 40.105 87.0195 40.105C87.5903 40.105 88.1099 40.1929 88.5782 40.3685C89.0612 40.5295 89.4783 40.7563 89.8296 41.049C90.1955 41.3418 90.5028 41.6784 90.7516 42.0589C91.0004 42.4394 91.1761 42.8492 91.2785 43.2883L90.6199 43.1785V40.3465H93.7154V51.96H90.576V49.1719L91.2785 49.106C91.1614 49.5158 90.9712 49.9036 90.7077 50.2695C90.4443 50.6354 90.115 50.9647 89.7198 51.2574C89.3393 51.5355 88.9075 51.7624 88.4246 51.938C87.9416 52.099 87.4293 52.1795 86.8878 52.1795ZM87.744 49.4792C88.3294 49.4792 88.8417 49.3402 89.2808 49.0621C89.7198 48.784 90.0564 48.3962 90.2906 47.8986C90.5394 47.3863 90.6638 46.7936 90.6638 46.1203C90.6638 45.4617 90.5394 44.8836 90.2906 44.386C90.0564 43.8884 89.7198 43.5005 89.2808 43.2224C88.8417 42.9297 88.3294 42.7834 87.744 42.7834C87.1732 42.7834 86.6683 42.9297 86.2292 43.2224C85.8048 43.5005 85.4682 43.8884 85.2193 44.386C84.9705 44.8836 84.8461 45.4617 84.8461 46.1203C84.8461 46.7936 84.9705 47.3863 85.2193 47.8986C85.4682 48.3962 85.8048 48.784 86.2292 49.0621C86.6683 49.3402 87.1732 49.4792 87.744 49.4792ZM97.0823 51.96V35.7143H100.2V51.96H97.0823ZM103.846 51.96V40.3465H106.964V51.96H103.846ZM105.383 37.9536C104.783 37.9536 104.315 37.8072 103.978 37.5145C103.642 37.2218 103.473 36.8047 103.473 36.2632C103.473 35.7656 103.642 35.3631 103.978 35.0557C104.329 34.7337 104.798 34.5728 105.383 34.5728C105.983 34.5728 106.452 34.7264 106.788 35.0338C107.125 35.3265 107.293 35.7363 107.293 36.2632C107.293 36.7754 107.117 37.1852 106.766 37.4926C106.43 37.7999 105.969 37.9536 105.383 37.9536ZM111.633 51.96V37.4048H114.75V51.96H111.633ZM109.459 43.1346V40.3465H117.121V43.1346H109.459ZM140.666 51.96V36.5925H146.966C148.093 36.5925 149.11 36.7827 150.018 37.1633C150.94 37.5292 151.73 38.056 152.389 38.7439C153.062 39.4172 153.574 40.2221 153.926 41.1588C154.277 42.0955 154.452 43.1346 154.452 44.2762C154.452 45.4032 154.277 46.4423 153.926 47.3936C153.574 48.3303 153.069 49.1426 152.411 49.8305C151.752 50.5037 150.962 51.0306 150.04 51.4111C149.118 51.777 148.093 51.96 146.966 51.96H140.666ZM143.959 49.567L143.607 48.9962H146.857C147.515 48.9962 148.108 48.8865 148.635 48.6669C149.162 48.4328 149.608 48.1181 149.974 47.7229C150.354 47.3131 150.64 46.8155 150.83 46.2301C151.02 45.6447 151.115 44.9934 151.115 44.2762C151.115 43.5591 151.02 42.9151 150.83 42.3443C150.64 41.7589 150.354 41.2613 149.974 40.8515C149.608 40.4417 149.162 40.127 148.635 39.9075C148.108 39.6733 147.515 39.5562 146.857 39.5562H143.542L143.959 39.0293V49.567ZM161.558 52.1795C160.592 52.1795 159.721 51.9161 158.946 51.3892C158.17 50.8623 157.555 50.1451 157.102 49.2377C156.648 48.3303 156.421 47.2912 156.421 46.1203C156.421 44.9495 156.648 43.9176 157.102 43.0249C157.57 42.1175 158.199 41.4076 158.99 40.8954C159.78 40.3685 160.68 40.105 161.69 40.105C162.261 40.105 162.78 40.1929 163.249 40.3685C163.732 40.5295 164.149 40.7563 164.5 41.049C164.866 41.3418 165.173 41.6784 165.422 42.0589C165.671 42.4394 165.846 42.8492 165.949 43.2883L165.29 43.1785V40.3465H168.386V51.96H165.246V49.1719L165.949 49.106C165.832 49.5158 165.642 49.9036 165.378 50.2695C165.115 50.6354 164.785 50.9647 164.39 51.2574C164.01 51.5355 163.578 51.7624 163.095 51.938C162.612 52.099 162.1 52.1795 161.558 52.1795ZM162.414 49.4792C163 49.4792 163.512 49.3402 163.951 49.0621C164.39 48.784 164.727 48.3962 164.961 47.8986C165.21 47.3863 165.334 46.7936 165.334 46.1203C165.334 45.4617 165.21 44.8836 164.961 44.386C164.727 43.8884 164.39 43.5005 163.951 43.2224C163.512 42.9297 163 42.7834 162.414 42.7834C161.844 42.7834 161.339 42.9297 160.9 43.2224C160.475 43.5005 160.139 43.8884 159.89 44.386C159.641 44.8836 159.517 45.4617 159.517 46.1203C159.517 46.7936 159.641 47.3863 159.89 47.8986C160.139 48.3962 160.475 48.784 160.9 49.0621C161.339 49.3402 161.844 49.4792 162.414 49.4792ZM172.85 51.96V37.4048H175.968V51.96H172.85ZM170.677 43.1346V40.3465H178.339V43.1346H170.677ZM180.854 51.96V40.3465H183.971V51.96H180.854ZM182.39 37.9536C181.79 37.9536 181.322 37.8072 180.985 37.5145C180.649 37.2218 180.48 36.8047 180.48 36.2632C180.48 35.7656 180.649 35.3631 180.985 35.0557C181.337 34.7337 181.805 34.5728 182.39 34.5728C182.99 34.5728 183.459 34.7264 183.795 35.0338C184.132 35.3265 184.3 35.7363 184.3 36.2632C184.3 36.7754 184.125 37.1852 183.773 37.4926C183.437 37.7999 182.976 37.9536 182.39 37.9536ZM187.52 51.96V40.3465H190.506L190.594 42.7175L189.979 42.981C190.14 42.4541 190.425 41.9784 190.835 41.554C191.26 41.1149 191.764 40.7637 192.35 40.5002C192.935 40.2368 193.55 40.105 194.194 40.105C195.072 40.105 195.804 40.2807 196.389 40.6319C196.989 40.9832 197.436 41.5174 197.729 42.2345C198.036 42.9371 198.19 43.8079 198.19 44.847V51.96H195.072V45.0885C195.072 44.5616 194.999 44.1225 194.853 43.7713C194.706 43.42 194.479 43.1639 194.172 43.0029C193.879 42.8273 193.513 42.7541 193.074 42.7834C192.723 42.7834 192.394 42.8419 192.086 42.959C191.794 43.0615 191.538 43.2151 191.318 43.42C191.113 43.6249 190.945 43.8591 190.813 44.1225C190.696 44.386 190.638 44.6714 190.638 44.9787V51.96H189.101C188.764 51.96 188.464 51.96 188.201 51.96C187.937 51.96 187.71 51.96 187.52 51.96ZM206.687 57.0093C205.765 57.0093 204.858 56.8702 203.965 56.5922C203.072 56.3287 202.348 55.9848 201.791 55.5603L202.889 53.3211C203.182 53.526 203.518 53.7089 203.899 53.8699C204.28 54.0309 204.675 54.1553 205.085 54.2431C205.509 54.3309 205.941 54.3749 206.38 54.3749C207.141 54.3749 207.763 54.2578 208.246 54.0236C208.743 53.7894 209.117 53.4382 209.365 52.9698C209.614 52.5161 209.739 51.9307 209.739 51.2135V49.1938L210.266 49.3036C210.178 49.7866 209.936 50.2329 209.541 50.6427C209.146 51.0379 208.648 51.3599 208.048 51.6087C207.448 51.8429 206.833 51.96 206.204 51.96C205.121 51.96 204.162 51.7112 203.328 51.2135C202.494 50.7159 201.835 50.028 201.352 49.1499C200.869 48.2718 200.628 47.2619 200.628 46.1203C200.628 44.9495 200.862 43.9176 201.33 43.0249C201.813 42.1175 202.465 41.4076 203.284 40.8954C204.119 40.3685 205.063 40.105 206.116 40.105C206.555 40.105 206.973 40.1563 207.368 40.2587C207.777 40.3612 208.151 40.5075 208.487 40.6978C208.839 40.8734 209.146 41.0783 209.409 41.3125C209.687 41.532 209.914 41.7735 210.09 42.037C210.266 42.3004 210.375 42.5638 210.419 42.8273L209.783 43.0029L209.87 40.3465H212.856V51.0818C212.856 52.0331 212.717 52.8747 212.439 53.6065C212.161 54.3383 211.751 54.953 211.21 55.4506C210.683 55.9628 210.031 56.3507 209.256 56.6141C208.495 56.8776 207.638 57.0093 206.687 57.0093ZM206.775 49.4573C207.39 49.4573 207.924 49.3182 208.378 49.0401C208.846 48.7621 209.204 48.3742 209.453 47.8766C209.702 47.379 209.826 46.7936 209.826 46.1203C209.826 45.4617 209.702 44.8836 209.453 44.386C209.204 43.8737 208.846 43.4786 208.378 43.2005C207.924 42.9224 207.39 42.7834 206.775 42.7834C206.175 42.7834 205.641 42.9297 205.172 43.2224C204.719 43.5005 204.367 43.8884 204.119 44.386C203.87 44.8836 203.745 45.4617 203.745 46.1203C203.745 46.7789 203.87 47.3644 204.119 47.8766C204.367 48.3742 204.719 48.7621 205.172 49.0401C205.641 49.3182 206.175 49.4573 206.775 49.4573Z" fill="url(#paint5_linear_474_249)"/>
<path d="M208.991 7.18856C206.824 4.95092 204.062 3.42707 201.055 2.8097C198.048 2.19234 194.932 2.50919 192.1 3.7202C189.267 4.9312 186.847 6.98196 185.143 9.61315C183.44 12.2443 182.531 15.3378 182.531 18.5023C182.531 21.6668 183.44 24.7602 185.143 27.3914C186.847 30.0226 189.267 32.0733 192.1 33.2843C194.932 34.4953 198.048 34.8122 201.055 34.1948C204.062 33.5775 206.824 32.0536 208.991 29.816L198.031 18.5023L208.991 7.18856Z" fill="url(#paint6_linear_474_249)"/>
<defs>
<filter id="filter0_di_474_249" x="81.1343" y="3.68496" width="38.0421" height="36.4457" filterUnits="userSpaceOnUse" color-interpolation-filters="sRGB">
<feFlood flood-opacity="0" result="BackgroundImageFix"/>
<feColorMatrix in="SourceAlpha" type="matrix" values="0 0 0 0 0 0 0 0 0 0 0 0 0 0 0 0 0 0 127 0" result="hardAlpha"/>
<feOffset dx="2.43928" dy="2.43928"/>
<feGaussianBlur stdDeviation="4.87857"/>
<feColorMatrix type="matrix" values="0 0 0 0 0.952941 0 0 0 0 0.27451 0 0 0 0 0.388235 0 0 0 0.3 0"/>
<feBlend mode="normal" in2="BackgroundImageFix" result="effect1_dropShadow_474_249"/>
<feBlend mode="normal" in="SourceGraphic" in2="effect1_dropShadow_474_249" result="shape"/>
<feColorMatrix in="SourceAlpha" type="matrix" values="0 0 0 0 0 0 0 0 0 0 0 0 0 0 0 0 0 0 127 0" result="hardAlpha"/>
<feOffset dx="-3.65892" dy="-4.87857"/>
<feGaussianBlur stdDeviation="5.48839"/>
<feComposite in2="hardAlpha" operator="arithmetic" k2="-1" k3="1"/>
<feColorMatrix type="matrix" values="0 0 0 0 0.854167 0 0 0 0 0.138802 0 0 0 0 0.353412 0 0 0 1 0"/>
<feBlend mode="normal" in2="shape" result="effect2_innerShadow_474_249"/>
</filter>
<filter id="filter1_f_474_249" x="91.0917" y="8.7599" width="14.614" height="14.7806" filterUnits="userSpaceOnUse" color-interpolation-filters="sRGB">
<feFlood flood-opacity="0" result="BackgroundImageFix"/>
<feBlend mode="normal" in="SourceGraphic" in2="BackgroundImageFix" result="shape"/>
<feGaussianBlur stdDeviation="2.74639" result="effect1_foregroundBlur_474_249"/>
</filter>
<linearGradient id="paint0_linear_474_249" x1="95.6045" y1="15.0473" x2="101.683" y2="23.6373" gradientUnits="userSpaceOnUse">
<stop stop-color="#1E6EA8"/>
<stop offset="1" stop-color="#31E3CE"/>
</linearGradient>
<linearGradient id="paint1_linear_474_249" x1="88.5083" y1="0.972412" x2="88.5083" y2="81.0274" gradientUnits="userSpaceOnUse">
<stop stop-color="#5469B5"/>
<stop offset="1" stop-color="white" stop-opacity="0"/>
</linearGradient>
<linearGradient id="paint2_linear_474_249" x1="88.5083" y1="0.972412" x2="88.5083" y2="81.0274" gradientUnits="userSpaceOnUse">
<stop stop-color="#5469B5"/>
<stop offset="1" stop-color="white" stop-opacity="0"/>
</linearGradient>
<linearGradient id="paint3_linear_474_249" x1="88.5083" y1="0.972412" x2="88.5083" y2="81.0274" gradientUnits="userSpaceOnUse">
<stop stop-color="#5469B5"/>
<stop offset="1" stop-color="white" stop-opacity="0"/>
</linearGradient>
<linearGradient id="paint4_linear_474_249" x1="88.5083" y1="0.972412" x2="88.5083" y2="81.0274" gradientUnits="userSpaceOnUse">
<stop stop-color="#5469B5"/>
<stop offset="1" stop-color="white" stop-opacity="0"/>
</linearGradient>
<linearGradient id="paint5_linear_474_249" x1="116.75" y1="29.96" x2="116.75" y2="64.1099" gradientUnits="userSpaceOnUse">
<stop stop-color="#7D7393"/>
<stop offset="1" stop-color="#624D90" stop-opacity="0"/>
</linearGradient>
<linearGradient id="paint6_linear_474_249" x1="195.761" y1="2.50244" x2="195.761" y2="34.5025" gradientUnits="userSpaceOnUse">
<stop stop-color="#5469B5"/>
<stop offset="1" stop-color="#EDFF1B" stop-opacity="0"/>
</linearGradient>
</defs>
</svg>
