<svg width="414" height="148" viewBox="0 0 414 148" xmlns="http://www.w3.org/2000/svg">
  <path d="M415 11.5166V170H-4V8.45194C-1.72479 15.4793 2.33781 23.5856 8.75639 30.7012C17.9642 40.909 31.9997 49.0503 52.4449 49.0503H119.333C126.458 49.0503 133.66 49.071 140.082 52.7576C146.451 56.4144 152.239 63.8065 156.136 79.0191C157.762 85.366 162.672 94.4327 170.908 101.997C179.164 109.58 190.8 115.684 205.872 116.005C219.588 116.297 247.115 107.319 257.988 75.9476L257.988 75.9473L258.109 75.5986C259.766 70.8114 262.074 64.1713 266.533 58.7154C270.95 53.3091 277.493 49.0503 287.733 49.0503H349.096C361.371 49.445 375.912 48.0621 388.608 41.7581C399.83 36.1854 409.561 26.7885 415 11.5166Z" stroke="url(#paint0_linear_81_12711)" stroke-width="2" fill="none"/>
  <defs>
    <linearGradient id="paint0_linear_81_12711" x1="0.5" y1="54" x2="366.5" y2="54" gradientUnits="userSpaceOnUse">
      <stop stop-color="#FF7EA6"/>
      <stop offset="1" stop-color="#AA6CFF"/>
    </linearGradient>
  </defs>
</svg>