<svg width="51" height="17" viewBox="0 0 51 17" fill="none" xmlns="http://www.w3.org/2000/svg">
<path d="M26.376 5.61501C26.3469 7.84388 28.4205 9.0876 29.9826 9.82714C31.5875 10.5858 32.1266 11.0724 32.1202 11.751C32.1083 12.7894 30.8401 13.2477 29.6533 13.2655C27.5828 13.2966 26.379 12.7224 25.4219 12.2881L24.676 15.6788C25.6363 16.1087 27.4143 16.4835 29.2581 16.5C33.5861 16.5 36.4176 14.4244 36.4329 11.2063C36.4499 7.12215 30.6181 6.89609 30.658 5.07057C30.6717 4.51703 31.2154 3.92633 32.4067 3.77614C32.9964 3.70027 34.6242 3.64221 36.4698 4.46787L37.1941 1.18728C36.2016 0.836188 34.926 0.5 33.3379 0.5C29.2642 0.5 26.3991 2.60384 26.376 5.61501ZM44.1544 0.782576C43.3641 0.782576 42.6982 1.23044 42.4009 1.91772L36.2186 16.259H40.5434L41.404 13.9483H46.6889L47.1881 16.259H51L47.6736 0.782576H44.1544ZM44.7595 4.96335L46.0076 10.7749H42.5894L44.7595 4.96335ZM21.1323 0.782769L17.7233 16.2588H21.8445L25.252 0.782382H21.1323V0.782769ZM15.0356 0.782382L10.7461 11.3165L9.01086 2.35978C8.80726 1.35992 8.00321 0.782576 7.11032 0.782576H0.0982148L0 1.23199C1.43955 1.53547 3.07514 2.02494 4.06605 2.54868C4.67248 2.86861 4.8454 3.14828 5.04462 3.90853L8.33113 16.259H12.6862L19.3633 0.782576H15.0356" fill="#578DF5"/>
</svg>
